<svg width="45" height="36" viewBox="0 0 45 36" fill="none" xmlns="http://www.w3.org/2000/svg">
<path fill-rule="evenodd" clip-rule="evenodd" d="M0.337135 20.5426C0.177501 21.6826 1.62501 25.7468 2.20544 26.8602C2.75613 27.9167 4.54048 31.1735 5.43325 31.8233C5.66332 31.7441 6.93701 30.7071 7.05678 30.4849C6.87485 30.068 5.25098 28.2041 4.16277 25.866C3.73471 24.9465 3.44011 24.1378 3.12169 23.1641C2.79127 22.1543 2.66931 21.2293 2.40612 20.1956L0.337135 20.5426Z" fill="#008DD2"/>
<path fill-rule="evenodd" clip-rule="evenodd" d="M44.9878 14.9527C45.1474 13.8128 43.6999 9.7484 43.1195 8.63512C42.5688 7.57863 40.7844 4.32181 39.8917 3.67194C39.6616 3.75097 38.3879 4.78804 38.2681 5.0102C38.4501 5.42712 40.0739 7.29122 41.1621 9.62919C41.5902 10.5487 41.8848 11.3575 42.2032 12.3311C42.5336 13.3411 42.6556 14.2661 42.9188 15.2997L44.9878 14.9527Z" fill="#2B2A29"/>
<path fill-rule="evenodd" clip-rule="evenodd" d="M16.1081 17.1967C15.9973 17.856 16.2684 18.4695 16.2242 18.9935C15.7489 19.0351 14.8893 19.2298 14.5136 19.027C14.1952 18.7426 14.4277 17.6244 14.2398 17.2413C13.9269 17.0902 12.5238 17.1629 12.0764 17.1883C11.9691 17.9732 12.2211 18.5885 12.2004 19.2828L10.4169 19.3709L10.2195 17.2508C9.89884 17.0582 8.52442 17.1593 8.04935 17.186C7.95157 18.0007 8.2145 18.8371 8.12485 19.5708C7.6959 19.5978 6.73833 19.7155 6.36381 19.6203L6.23338 17.1722L4.02716 17.1789C3.8418 18.9544 4.53989 22.2993 5.22122 23.9217C6.80381 27.691 8.90171 30.4531 12.3549 32.8716C13.4004 33.6037 16.7134 35.4228 17.8987 35.4953C18.0555 35.0821 18.5292 33.8896 18.5415 33.5082C17.2501 33.0514 16.1241 32.6088 14.9677 31.9398C14.1828 31.4856 12.5592 30.4633 12.01 29.8052C12.1106 29.538 12.8638 28.7069 13.1153 28.5665C13.8074 28.8178 15.3383 31.0467 20.7 32.3072C21.3318 32.4557 23.5955 32.7893 24.11 32.6094C24.2461 32.2227 24.1784 31.0462 24.1535 30.57C22.0691 30.3757 20.6212 30.2953 18.5793 29.4142C17.6597 29.0177 15.0465 27.5918 14.5922 26.8079L15.7225 25.57C16.5011 26.201 17.1225 26.7221 18.0341 27.2441C18.5574 27.5436 20.3509 28.3949 20.8949 28.3502C21.0389 27.8782 21.4351 26.7302 21.4123 26.3088C20.1636 26.0057 17.9446 24.8631 17.2165 23.9138C17.2937 23.6609 18.0975 22.7621 18.3295 22.6428C18.8118 22.9704 19.4313 23.736 20.0429 23.8404C20.2274 23.6468 21.0934 22.2675 21.1409 22.0683C20.2493 21.3114 19.8421 21.2115 19.1632 20.1395C17.326 17.2378 19.8696 17.0508 16.1081 17.1967Z" fill="#008DD2"/>
<path fill-rule="evenodd" clip-rule="evenodd" d="M29.5839 18.2985C29.6912 17.6392 29.4284 17.0259 29.4713 16.5017C29.9321 16.4603 30.7657 16.2654 31.13 16.4682C31.4388 16.7526 31.2133 17.871 31.3956 18.2539C31.6988 18.4052 33.0595 18.3323 33.4934 18.3069C33.5972 17.5222 33.353 16.9069 33.3731 16.2124L35.1024 16.1243L35.294 18.2443C35.6048 18.4371 36.9377 18.3359 37.3984 18.3094C37.4932 17.4945 37.2382 16.6581 37.3252 15.9244C37.7411 15.8976 38.6697 15.7797 39.0328 15.8749L39.1593 18.323L41.2987 18.3164C41.4784 16.5409 40.8015 13.1961 40.1408 11.5735C38.6062 7.80436 36.5718 5.04229 33.2233 2.62378C32.2095 1.89158 28.9969 0.0725948 27.8474 0C27.6954 0.413181 27.2361 1.60581 27.2242 1.98706C28.4764 2.44403 29.5683 2.88651 30.6896 3.5555C31.4508 4.00967 33.0252 5.03209 33.5577 5.69022C33.46 5.95722 32.7298 6.78836 32.4859 6.92894C31.8147 6.67757 30.3303 4.44853 25.1311 3.18825C24.5185 3.0396 22.3233 2.70593 21.8244 2.88601C21.6924 3.27269 21.7581 4.44903 21.7822 4.92542C23.8035 5.11966 25.2075 5.20016 27.1875 6.08101C28.079 6.47773 30.6133 7.90362 31.0538 8.68735L29.9578 9.92524C29.2028 9.29428 28.6002 8.77311 27.7162 8.25128C27.2088 7.95168 25.4696 7.10047 24.9421 7.14508C24.8024 7.61702 24.4183 8.76504 24.4404 9.18662C25.6512 9.48951 27.803 10.6323 28.5091 11.5816C28.4342 11.8343 27.6547 12.7332 27.4296 12.8524C26.962 12.5248 26.3613 11.7592 25.7683 11.655C25.5894 11.8484 24.7496 13.2279 24.7036 13.4271C25.5681 14.1838 25.963 14.2837 26.6213 15.3559C28.4029 18.2575 25.9363 18.4444 29.5839 18.2985Z" fill="#2B2A29"/>
</svg>
