<svg width="34" height="34" viewBox="0 0 34 34" fill="none" xmlns="http://www.w3.org/2000/svg">
<g clip-path="url(#clip0_1689_761)">
<path d="M33.4286 11.7107H0.857178V22.575H33.4286V11.7107Z" fill="#F5F5F5"/>
<path d="M26.3036 0.857178H7.98218C4.04714 0.857178 0.857178 4.04714 0.857178 7.98218V11.7217H33.4286V7.98218C33.4286 4.04714 30.2386 0.857178 26.3036 0.857178Z" fill="#27AE60"/>
<path d="M0.857178 26.3036C0.857178 30.2386 4.04714 33.4286 7.98218 33.4286H26.3036C30.2386 33.4286 33.4286 30.2386 33.4286 26.3036V22.5641H0.857178V26.3036Z" fill="#FF4B55"/>
<path d="M1.44079 9.86948V9.85466C1.44079 9.78016 1.38036 9.71973 1.30586 9.71973H0.857178V10.0044H1.3058C1.38036 10.0044 1.44079 9.94397 1.44079 9.86948Z" fill="#F5F5F5"/>
<path d="M1.44079 11.0008V10.993C1.44079 10.9184 1.38036 10.8581 1.30586 10.8581H1.02067C0.946177 10.8581 0.885741 10.7976 0.885741 10.7231V10.7085C0.885741 10.634 0.946177 10.5736 1.02067 10.5736H1.57979C1.65429 10.5736 1.71472 10.634 1.71472 10.7085V11.0008C1.71472 11.0753 1.77516 11.1357 1.84965 11.1357H2.97438C3.04894 11.1357 3.10931 11.0753 3.10931 11.0008V9.85453C3.10931 9.78004 3.04888 9.7196 2.97438 9.7196H2.96681C2.89232 9.7196 2.83188 9.78004 2.83188 9.85453V10.7231C2.83188 10.7976 2.77145 10.8581 2.69695 10.8581H2.68576C2.61126 10.8581 2.55083 10.7976 2.55083 10.7231V9.85453C2.55083 9.78004 2.49039 9.7196 2.4159 9.7196H2.41183C2.33727 9.7196 2.2769 9.78004 2.2769 9.85453V10.7231C2.2769 10.7976 2.21646 10.8581 2.14197 10.8581H2.13077C2.05628 10.8581 1.99584 10.7976 1.99584 10.7231V9.85453C1.99584 9.78004 1.93541 9.7196 1.86091 9.7196H1.84972C1.77522 9.7196 1.71479 9.78004 1.71479 9.85453V10.1539C1.71479 10.2284 1.65435 10.2888 1.57986 10.2888H0.857178V11.1357H1.3058C1.38036 11.1357 1.44079 11.0753 1.44079 11.0008Z" fill="#F5F5F5"/>
<path d="M8.5316 9.7196H8.52403C8.44954 9.7196 8.3891 9.78004 8.3891 9.85453V10.7231C8.3891 10.7976 8.32867 10.8581 8.25417 10.8581H8.2501C8.1756 10.8581 8.11517 10.7976 8.11517 10.7231V9.85453C8.11517 9.78004 8.05473 9.7196 7.98024 9.7196H7.96904C7.89449 9.7196 7.83411 9.78004 7.83411 9.85453V10.7231C7.83411 10.7976 7.77368 10.8581 7.69918 10.8581H7.68799C7.61349 10.8581 7.55306 10.7976 7.55306 10.7231V9.85453C7.55306 9.78004 7.49262 9.7196 7.41813 9.7196H7.41037C7.33587 9.7196 7.27544 9.78004 7.27544 9.85453V10.1539C7.27544 10.2284 7.215 10.2888 7.14051 10.2888H6.30046C6.22596 10.2888 6.16553 10.3493 6.16553 10.4238V11.0008C6.16553 11.0753 6.22596 11.1357 6.30046 11.1357H6.8667C6.9412 11.1357 7.00163 11.0753 7.00163 11.0008V10.993C7.00163 10.9184 6.9412 10.8581 6.8667 10.8581H6.57789C6.50339 10.8581 6.44296 10.7976 6.44296 10.7231V10.7085C6.44296 10.634 6.50339 10.5736 6.57789 10.5736H7.14044C7.21494 10.5736 7.27537 10.634 7.27537 10.7085V11.0008C7.27537 11.0753 7.33581 11.1357 7.4103 11.1357H8.53154C8.60609 11.1357 8.66647 11.0753 8.66647 11.0008V9.85453C8.66653 9.78004 8.60616 9.7196 8.5316 9.7196Z" fill="#F5F5F5"/>
<path d="M4.08439 11.1357C4.15889 11.1357 4.21932 11.0752 4.21932 11.0007V10.993C4.21932 10.9184 4.15889 10.858 4.08439 10.858H4.07682C4.00227 10.858 3.94189 10.9184 3.94189 10.993V11.0007C3.94189 11.0752 4.00233 11.1357 4.07682 11.1357H4.08439Z" fill="#F5F5F5"/>
<path d="M3.52189 10.0044H6.86676C6.94126 10.0044 7.00169 9.94397 7.00169 9.86948V9.85466C7.00169 9.78016 6.94126 9.71973 6.86676 9.71973H3.52189C3.4474 9.71973 3.38696 9.78016 3.38696 9.85466V9.86948C3.38696 9.94397 3.44733 10.0044 3.52189 10.0044Z" fill="#F5F5F5"/>
<path d="M5.75304 10.2889H5.19048C5.11598 10.2889 5.05555 10.3493 5.05555 10.4238V10.4386C5.05555 10.5131 5.11598 10.5736 5.19048 10.5736H5.47567C5.55023 10.5736 5.6106 10.634 5.6106 10.7085V10.7231C5.6106 10.7976 5.55016 10.8581 5.47567 10.8581H4.90942C4.83493 10.8581 4.77449 10.7976 4.77449 10.7231V10.4237C4.77449 10.3492 4.71406 10.2888 4.63956 10.2888H3.52189C3.4474 10.2888 3.38696 10.3493 3.38696 10.4237V11.0007C3.38696 11.0752 3.4474 11.1357 3.52189 11.1357H3.52946C3.60396 11.1357 3.66439 11.0752 3.66439 11.0007V10.7085C3.66439 10.634 3.72483 10.5736 3.79932 10.5736H4.36207C4.43663 10.5736 4.497 10.634 4.497 10.7085V11.0007C4.497 11.0752 4.55743 11.1357 4.63193 11.1357H5.75304C5.82753 11.1357 5.88797 11.0752 5.88797 11.0007V10.4237C5.88797 10.3493 5.82753 10.2889 5.75304 10.2889Z" fill="#F5F5F5"/>
<path d="M9.64165 11.1357C9.71614 11.1357 9.77658 11.0752 9.77658 11.0007V10.993C9.77658 10.9184 9.71614 10.858 9.64165 10.858H9.63408C9.55958 10.858 9.49915 10.9184 9.49915 10.993V11.0007C9.49915 11.0752 9.55958 11.1357 9.63408 11.1357H9.64165Z" fill="#F5F5F5"/>
<path d="M9.07902 10.0044H12.4202C12.4947 10.0044 12.5551 9.94397 12.5551 9.86948V9.85466C12.5551 9.78016 12.4947 9.71973 12.4202 9.71973H9.07902C9.00453 9.71973 8.94409 9.78016 8.94409 9.85466V9.86948C8.94409 9.94397 9.00453 10.0044 9.07902 10.0044Z" fill="#F5F5F5"/>
<path d="M14.0888 9.7196H14.0812C14.0068 9.7196 13.9463 9.78004 13.9463 9.85453V10.7231C13.9463 10.7976 13.8859 10.8581 13.8114 10.8581H13.8036C13.7291 10.8581 13.6687 10.7976 13.6687 10.7231V9.85453C13.6687 9.78004 13.6083 9.7196 13.5338 9.7196H13.5226C13.4481 9.7196 13.3876 9.78004 13.3876 9.85453V10.7231C13.3876 10.7976 13.3272 10.8581 13.2527 10.8581H13.2486C13.1741 10.8581 13.1137 10.7976 13.1137 10.7231V9.85453C13.1137 9.78004 13.0533 9.7196 12.9788 9.7196H12.9712C12.8966 9.7196 12.8363 9.78004 12.8363 9.85453V10.1539C12.8363 10.2284 12.7758 10.2888 12.7013 10.2888H11.854C11.7796 10.2888 11.7191 10.3493 11.7191 10.4238V11.0008C11.7191 11.0753 11.7796 11.1357 11.854 11.1357H12.4203C12.4948 11.1357 12.5552 11.0753 12.5552 11.0008V10.993C12.5552 10.9184 12.4948 10.8581 12.4203 10.8581H12.1352C12.0607 10.8581 12.0002 10.7976 12.0002 10.7231V10.7085C12.0002 10.634 12.0607 10.5736 12.1352 10.5736H12.7014C12.7759 10.5736 12.8363 10.634 12.8363 10.7085V11.0008C12.8363 11.0753 12.8967 11.1357 12.9713 11.1357H14.0889C14.1634 11.1357 14.2238 11.0753 14.2238 11.0008V9.85453C14.2237 9.78004 14.1633 9.7196 14.0888 9.7196Z" fill="#F5F5F5"/>
<path d="M11.3102 10.2889H10.744C10.6695 10.2889 10.609 10.3493 10.609 10.4238V10.4386C10.609 10.5131 10.6695 10.5736 10.744 10.5736H11.0292C11.1037 10.5736 11.1641 10.634 11.1641 10.7085V10.7231C11.1641 10.7976 11.1037 10.8581 11.0292 10.8581H10.4666C10.3921 10.8581 10.3317 10.7976 10.3317 10.7231V10.4237C10.3317 10.3492 10.2712 10.2888 10.1968 10.2888H9.07914C9.00465 10.2888 8.94421 10.3493 8.94421 10.4237V11.0007C8.94421 11.0752 9.00465 11.1357 9.07914 11.1357H9.08671C9.16121 11.1357 9.22164 11.0752 9.22164 11.0007V10.7085C9.22164 10.634 9.28208 10.5736 9.35657 10.5736H9.91913C9.99363 10.5736 10.0541 10.634 10.0541 10.7085V11.0007C10.0541 11.0752 10.1145 11.1357 10.189 11.1357H11.3102C11.3848 11.1357 11.4452 11.0752 11.4452 11.0007V10.4237C11.4452 10.3493 11.3848 10.2889 11.3102 10.2889Z" fill="#F5F5F5"/>
<path d="M19.646 9.7196H19.6383C19.5638 9.7196 19.5034 9.78004 19.5034 9.85453V10.7231C19.5034 10.7976 19.4429 10.8581 19.3684 10.8581H19.3609C19.2864 10.8581 19.2259 10.7976 19.2259 10.7231V9.85453C19.2259 9.78004 19.1655 9.7196 19.091 9.7196H19.0834C19.0089 9.7196 18.9485 9.78004 18.9485 9.85453V10.7231C18.9485 10.7976 18.8881 10.8581 18.8136 10.8581H18.8058C18.7313 10.8581 18.6709 10.7976 18.6709 10.7231V9.85453C18.6709 9.78004 18.6104 9.7196 18.5359 9.7196H18.5284C18.4539 9.7196 18.3934 9.78004 18.3934 9.85453V10.1539C18.3934 10.2284 18.333 10.2888 18.2585 10.2888H17.4147C17.3402 10.2888 17.2798 10.3493 17.2798 10.4238V11.0008C17.2798 11.0753 17.3402 11.1357 17.4147 11.1357H17.981C18.0555 11.1357 18.1159 11.0753 18.1159 11.0008V10.993C18.1159 10.9184 18.0555 10.8581 17.981 10.8581H17.6923C17.6178 10.8581 17.5574 10.7976 17.5574 10.7231V10.7085C17.5574 10.634 17.6178 10.5736 17.6923 10.5736H18.2586C18.3331 10.5736 18.3935 10.634 18.3935 10.7085V11.0008C18.3935 11.0753 18.4539 11.1357 18.5284 11.1357H19.646C19.7205 11.1357 19.781 11.0753 19.781 11.0008V9.85453C19.781 9.78004 19.7205 9.7196 19.646 9.7196Z" fill="#F5F5F5"/>
<path d="M16.8675 10.2889H16.3012C16.2267 10.2889 16.1663 10.3493 16.1663 10.4238V10.4386C16.1663 10.5131 16.2267 10.5736 16.3012 10.5736H16.5899C16.6644 10.5736 16.7248 10.634 16.7248 10.7085V10.7231C16.7248 10.7976 16.6644 10.8581 16.5899 10.8581H16.0272C15.9527 10.8581 15.8923 10.7976 15.8923 10.7231V10.4237C15.8923 10.3492 15.8319 10.2888 15.7574 10.2888H14.6362C14.5617 10.2888 14.5012 10.3493 14.5012 10.4237V11.0007C14.5012 11.0752 14.5617 11.1357 14.6362 11.1357H14.6439C14.7184 11.1357 14.7788 11.0752 14.7788 11.0007V10.7085C14.7788 10.634 14.8393 10.5736 14.9138 10.5736H15.4763C15.5508 10.5736 15.6113 10.634 15.6113 10.7085V11.0007C15.6113 11.0752 15.6717 11.1357 15.7462 11.1357H16.8675C16.942 11.1357 17.0024 11.0752 17.0024 11.0007V10.4237C17.0024 10.3493 16.942 10.2889 16.8675 10.2889Z" fill="#F5F5F5"/>
<path d="M14.6362 10.0044H17.981C18.0555 10.0044 18.1159 9.94397 18.1159 9.86948V9.85466C18.1159 9.78016 18.0555 9.71973 17.981 9.71973H14.6362C14.5617 9.71973 14.5012 9.78016 14.5012 9.85466V9.86948C14.5012 9.94397 14.5617 10.0044 14.6362 10.0044Z" fill="#F5F5F5"/>
<path d="M15.1988 11.1357C15.2733 11.1357 15.3337 11.0752 15.3337 11.0007V10.993C15.3337 10.9184 15.2734 10.858 15.1988 10.858H15.1947C15.1202 10.858 15.0598 10.9184 15.0598 10.993V11.0007C15.0598 11.0752 15.1202 11.1357 15.1947 11.1357H15.1988Z" fill="#F5F5F5"/>
<path d="M22.4247 10.2889H21.8619C21.7874 10.2889 21.727 10.3493 21.727 10.4238V10.4386C21.727 10.5131 21.7874 10.5736 21.8619 10.5736H22.1436C22.2181 10.5736 22.2785 10.634 22.2785 10.7085V10.7231C22.2785 10.7976 22.2181 10.8581 22.1436 10.8581H21.5845C21.51 10.8581 21.4496 10.7976 21.4496 10.7231V10.4237C21.4496 10.3492 21.3892 10.2888 21.3146 10.2888H20.1934C20.1189 10.2888 20.0585 10.3493 20.0585 10.4237V11.0007C20.0585 11.0752 20.1189 11.1357 20.1934 11.1357H20.2012C20.2757 11.1357 20.3361 11.0752 20.3361 11.0007V10.7085C20.3361 10.634 20.3965 10.5736 20.471 10.5736H21.0336C21.1081 10.5736 21.1686 10.634 21.1686 10.7085V11.0007C21.1686 11.0752 21.229 11.1357 21.3035 11.1357H22.4247C22.4992 11.1357 22.5597 11.0752 22.5597 11.0007V10.4237C22.5596 10.3493 22.4992 10.2889 22.4247 10.2889Z" fill="#F5F5F5"/>
<path d="M25.2032 9.7196H25.1955C25.121 9.7196 25.0605 9.78004 25.0605 9.85453V10.7231C25.0605 10.7976 25.0001 10.8581 24.9256 10.8581H24.918C24.8435 10.8581 24.7831 10.7976 24.7831 10.7231V9.85453C24.7831 9.78004 24.7227 9.7196 24.6482 9.7196H24.6404C24.5659 9.7196 24.5055 9.78004 24.5055 9.85453V10.7231C24.5055 10.7976 24.445 10.8581 24.3705 10.8581H24.363C24.2885 10.8581 24.228 10.7976 24.228 10.7231V9.85453C24.228 9.78004 24.1676 9.7196 24.0931 9.7196H24.0854C24.0108 9.7196 23.9504 9.78004 23.9504 9.85453V10.1539C23.9504 10.2284 23.89 10.2888 23.8155 10.2888H22.9755C22.9009 10.2888 22.8406 10.3493 22.8406 10.4238V11.0008C22.8406 11.0753 22.901 11.1357 22.9755 11.1357H23.5381C23.6126 11.1357 23.673 11.0753 23.673 11.0008V10.993C23.673 10.9184 23.6126 10.8581 23.5381 10.8581H23.2494C23.1749 10.8581 23.1145 10.7976 23.1145 10.7231V10.7085C23.1145 10.634 23.1749 10.5736 23.2494 10.5736H23.8155C23.89 10.5736 23.9504 10.634 23.9504 10.7085V11.0008C23.9504 11.0753 24.0109 11.1357 24.0854 11.1357H25.2032C25.2777 11.1357 25.3381 11.0753 25.3381 11.0008V9.85453C25.3381 9.78004 25.2778 9.7196 25.2032 9.7196Z" fill="#F5F5F5"/>
<path d="M20.7561 11.1357C20.8306 11.1357 20.891 11.0752 20.891 11.0007V10.993C20.891 10.9184 20.8306 10.858 20.7561 10.858H20.752C20.6774 10.858 20.6171 10.9184 20.6171 10.993V11.0007C20.6171 11.0752 20.6775 11.1357 20.752 11.1357H20.7561Z" fill="#F5F5F5"/>
<path d="M20.1934 10.0044H23.5383C23.6128 10.0044 23.6732 9.94397 23.6732 9.86948V9.85466C23.6732 9.78016 23.6128 9.71973 23.5383 9.71973H20.1934C20.1189 9.71973 20.0585 9.78016 20.0585 9.85466V9.86948C20.0585 9.94397 20.1188 10.0044 20.1934 10.0044Z" fill="#F5F5F5"/>
<path d="M26.3168 11.1357C26.3913 11.1357 26.4517 11.0752 26.4517 11.0007V10.993C26.4517 10.9184 26.3913 10.858 26.3168 10.858H26.3056C26.2311 10.858 26.1707 10.9184 26.1707 10.993V11.0007C26.1707 11.0752 26.2311 11.1357 26.3056 11.1357H26.3168Z" fill="#F5F5F5"/>
<path d="M25.7505 10.0044H29.0953C29.1699 10.0044 29.2303 9.94397 29.2303 9.86948V9.85466C29.2303 9.78016 29.1698 9.71973 29.0953 9.71973H25.7505C25.676 9.71973 25.6156 9.78016 25.6156 9.85466V9.86948C25.6156 9.94397 25.676 10.0044 25.7505 10.0044Z" fill="#F5F5F5"/>
<path d="M30.7603 9.7196H30.7565C30.682 9.7196 30.6215 9.78004 30.6215 9.85453V10.7231C30.6215 10.7976 30.5611 10.8581 30.4866 10.8581H30.4754C30.4009 10.8581 30.3405 10.7976 30.3405 10.7231V9.85453C30.3405 9.78004 30.28 9.7196 30.2055 9.7196H30.1978C30.1233 9.7196 30.0628 9.78004 30.0628 9.85453V10.7231C30.0628 10.7976 30.0024 10.8581 29.9279 10.8581H29.9203C29.8459 10.8581 29.7854 10.7976 29.7854 10.7231V9.85453C29.7854 9.78004 29.725 9.7196 29.6505 9.7196H29.6427C29.5682 9.7196 29.5078 9.78004 29.5078 9.85453V10.1539C29.5078 10.2284 29.4474 10.2888 29.3729 10.2888H28.5329C28.4584 10.2888 28.3979 10.3493 28.3979 10.4238V11.0008C28.3979 11.0753 28.4584 11.1357 28.5329 11.1357H29.0954C29.17 11.1357 29.2304 11.0753 29.2304 11.0008V10.993C29.2304 10.9184 29.1699 10.8581 29.0954 10.8581H28.8137C28.7393 10.8581 28.6788 10.7976 28.6788 10.7231V10.7085C28.6788 10.634 28.7393 10.5736 28.8137 10.5736H29.3729C29.4474 10.5736 29.5078 10.634 29.5078 10.7085V11.0008C29.5078 11.0753 29.5682 11.1357 29.6427 11.1357H30.7603C30.8348 11.1357 30.8953 11.0753 30.8953 11.0008V9.85453C30.8953 9.78004 30.8348 9.7196 30.7603 9.7196Z" fill="#F5F5F5"/>
<path d="M27.9819 10.2889H27.4192C27.3447 10.2889 27.2842 10.3493 27.2842 10.4238V10.4386C27.2842 10.5131 27.3447 10.5736 27.4192 10.5736H27.708C27.7825 10.5736 27.8429 10.634 27.8429 10.7085V10.7231C27.8429 10.7976 27.7825 10.8581 27.708 10.8581H27.1381C27.0636 10.8581 27.0032 10.7976 27.0032 10.7231V10.4237C27.0032 10.3492 26.9428 10.2888 26.8683 10.2888H25.7507C25.6762 10.2888 25.6157 10.3493 25.6157 10.4237V11.0007C25.6157 11.0752 25.6762 11.1357 25.7507 11.1357H25.7584C25.8329 11.1357 25.8933 11.0752 25.8933 11.0007V10.7085C25.8933 10.634 25.9538 10.5736 26.0283 10.5736H26.5943C26.6688 10.5736 26.7293 10.634 26.7293 10.7085V11.0007C26.7293 11.0752 26.7897 11.1357 26.8642 11.1357H27.982C28.0565 11.1357 28.1169 11.0752 28.1169 11.0007V10.4237C28.1169 10.3493 28.0564 10.2889 27.9819 10.2889Z" fill="#F5F5F5"/>
<path d="M32.8451 10.4238V10.4386C32.8451 10.5131 32.9055 10.5736 32.98 10.5736H33.265C33.3396 10.5736 33.4 10.634 33.4 10.7085V10.7231C33.4 10.7976 33.3395 10.8581 33.265 10.8581H32.699C32.6245 10.8581 32.564 10.7976 32.564 10.7231V10.4237C32.564 10.3492 32.5036 10.2888 32.4291 10.2888H31.3113C31.2368 10.2888 31.1764 10.3493 31.1764 10.4237V11.0007C31.1764 11.0752 31.2368 11.1357 31.3113 11.1357H31.3154C31.3899 11.1357 31.4503 11.0752 31.4503 11.0007V10.7085C31.4503 10.634 31.5108 10.5736 31.5853 10.5736H32.148C32.2226 10.5736 32.2829 10.634 32.2829 10.7085V11.0007C32.2829 11.0752 32.3434 11.1357 32.4179 11.1357H33.4287V10.2888H32.98C32.9055 10.2888 32.8451 10.3493 32.8451 10.4238Z" fill="#F5F5F5"/>
<path d="M31.1763 9.85453V9.86936C31.1763 9.94385 31.2367 10.0043 31.3112 10.0043H33.4286V9.7196H31.3112C31.2367 9.7196 31.1763 9.78004 31.1763 9.85453Z" fill="#F5F5F5"/>
<path d="M31.8663 11.1357H31.874C31.9485 11.1357 32.0089 11.0752 32.0089 11.0007V10.993C32.0089 10.9184 31.9485 10.858 31.874 10.858H31.8663C31.7918 10.858 31.7313 10.9184 31.7313 10.993V11.0007C31.7313 11.0753 31.7918 11.1357 31.8663 11.1357Z" fill="#F5F5F5"/>
<path d="M3.10931 11.8617V11.5623C3.10931 11.4878 3.04888 11.4274 2.97438 11.4274H0.857178V11.9966H2.97438C3.04888 11.9967 3.10931 11.9362 3.10931 11.8617Z" fill="#F5F5F5"/>
<path d="M5.75304 11.4274H3.52189C3.4474 11.4274 3.38696 11.4878 3.38696 11.5623V11.8617C3.38696 11.9362 3.4474 11.9966 3.52189 11.9966H5.75304C5.82753 11.9966 5.88797 11.9362 5.88797 11.8617V11.5623C5.88797 11.4877 5.82753 11.4274 5.75304 11.4274Z" fill="#F5F5F5"/>
<path d="M8.5316 11.4274H6.30046C6.22596 11.4274 6.16553 11.4878 6.16553 11.5623V11.8617C6.16553 11.9362 6.22596 11.9966 6.30046 11.9966H8.5316C8.60616 11.9966 8.66653 11.9362 8.66653 11.8617V11.5623C8.66653 11.4877 8.60616 11.4274 8.5316 11.4274Z" fill="#F5F5F5"/>
<path d="M11.3102 11.4274H9.07902C9.00453 11.4274 8.94409 11.4878 8.94409 11.5623V11.8617C8.94409 11.9362 9.00453 11.9966 9.07902 11.9966H11.3102C11.3847 11.9966 11.4451 11.9362 11.4451 11.8617V11.5623C11.4451 11.4877 11.3847 11.4274 11.3102 11.4274Z" fill="#F5F5F5"/>
<path d="M14.0888 11.4274H11.854C11.7796 11.4274 11.7191 11.4878 11.7191 11.5623V11.8617C11.7191 11.9362 11.7796 11.9966 11.854 11.9966H14.0888C14.1633 11.9966 14.2237 11.9362 14.2237 11.8617V11.5623C14.2237 11.4877 14.1633 11.4274 14.0888 11.4274Z" fill="#F5F5F5"/>
<path d="M16.8675 11.4274H14.6362C14.5617 11.4274 14.5012 11.4878 14.5012 11.5623V11.8617C14.5012 11.9362 14.5617 11.9966 14.6362 11.9966H16.8675C16.942 11.9966 17.0024 11.9362 17.0024 11.8617V11.5623C17.0024 11.4877 16.942 11.4274 16.8675 11.4274Z" fill="#F5F5F5"/>
<path d="M19.646 11.4274H17.4147C17.3402 11.4274 17.2798 11.4878 17.2798 11.5623V11.8617C17.2798 11.9362 17.3402 11.9966 17.4147 11.9966H19.646C19.7205 11.9966 19.781 11.9362 19.781 11.8617V11.5623C19.781 11.4877 19.7205 11.4274 19.646 11.4274Z" fill="#F5F5F5"/>
<path d="M25.2033 11.4274H22.9756C22.9011 11.4274 22.8407 11.4878 22.8407 11.5623V11.8617C22.8407 11.9362 22.9011 11.9966 22.9756 11.9966H25.2033C25.2778 11.9966 25.3382 11.9362 25.3382 11.8617V11.5623C25.3382 11.4877 25.2778 11.4274 25.2033 11.4274Z" fill="#F5F5F5"/>
<path d="M22.4246 11.4274H20.1933C20.1188 11.4274 20.0583 11.4878 20.0583 11.5623V11.8617C20.0583 11.9362 20.1188 11.9966 20.1933 11.9966H22.4246C22.4991 11.9966 22.5595 11.9362 22.5595 11.8617V11.5623C22.5595 11.4877 22.4992 11.4274 22.4246 11.4274Z" fill="#F5F5F5"/>
<path d="M27.9819 11.4274H25.7505C25.676 11.4274 25.6156 11.4878 25.6156 11.5623V11.8617C25.6156 11.9362 25.676 11.9966 25.7505 11.9966H27.9819C28.0564 11.9966 28.1168 11.9362 28.1168 11.8617V11.5623C28.1168 11.4877 28.0564 11.4274 27.9819 11.4274Z" fill="#F5F5F5"/>
<path d="M30.7603 11.4274H28.5328C28.4583 11.4274 28.3978 11.4878 28.3978 11.5623V11.8617C28.3978 11.9362 28.4583 11.9966 28.5328 11.9966H30.7603C30.8348 11.9966 30.8952 11.9362 30.8952 11.8617V11.5623C30.8952 11.4877 30.8348 11.4274 30.7603 11.4274Z" fill="#F5F5F5"/>
<path d="M31.1763 11.5623V11.8617C31.1763 11.9362 31.2367 11.9966 31.3112 11.9966H33.4286V11.4274H31.3112C31.2367 11.4274 31.1763 11.4877 31.1763 11.5623Z" fill="#F5F5F5"/>
<path d="M32.845 23.2851V23.2928C32.845 23.3673 32.9055 23.4278 32.98 23.4278H33.2652C33.3397 23.4278 33.4001 23.4882 33.4001 23.5627V23.5773C33.4001 23.6518 33.3397 23.7123 33.2652 23.7123H32.706C32.6315 23.7123 32.5711 23.6518 32.5711 23.5773V23.2851C32.5711 23.2106 32.5107 23.1501 32.4362 23.1501H31.3114C31.2369 23.1501 31.1765 23.2106 31.1765 23.2851V24.4313C31.1765 24.5059 31.2369 24.5662 31.3114 24.5662H31.319C31.3935 24.5662 31.4539 24.5058 31.4539 24.4313V23.5627C31.4539 23.4882 31.5144 23.4278 31.5889 23.4278H31.6001C31.6746 23.4278 31.735 23.4882 31.735 23.5627V24.4313C31.735 24.5059 31.7954 24.5662 31.8699 24.5662H31.874C31.9485 24.5662 32.0089 24.5058 32.0089 24.4313V23.5627C32.0089 23.4882 32.0694 23.4278 32.1439 23.4278H32.1551C32.2295 23.4278 32.29 23.4882 32.29 23.5627V24.4313C32.29 24.5059 32.3504 24.5662 32.4249 24.5662H32.4361C32.5106 24.5662 32.571 24.5058 32.571 24.4313V24.1319C32.571 24.0574 32.6315 23.997 32.706 23.997H33.4286V23.1501H32.98C32.9054 23.1501 32.845 23.2106 32.845 23.2851Z" fill="#F5F5F5"/>
<path d="M32.8451 24.4164V24.4312C32.8451 24.5058 32.9055 24.5662 32.98 24.5662H33.4286V24.2815H32.98C32.9055 24.2815 32.8451 24.3419 32.8451 24.4164Z" fill="#F5F5F5"/>
<path d="M30.2089 23.4278C30.2835 23.4278 30.3438 23.3673 30.3438 23.2928V23.2851C30.3438 23.2106 30.2834 23.1501 30.2089 23.1501H30.2013C30.1268 23.1501 30.0664 23.2106 30.0664 23.2851V23.2928C30.0664 23.3673 30.1268 23.4278 30.2013 23.4278H30.2089Z" fill="#F5F5F5"/>
<path d="M28.1203 23.8621V23.2851C28.1203 23.2106 28.0598 23.1501 27.9853 23.1501H27.4191C27.3446 23.1501 27.2842 23.2106 27.2842 23.2851V23.2928C27.2842 23.3673 27.3446 23.4278 27.4191 23.4278H27.7079C27.7824 23.4278 27.8428 23.4882 27.8428 23.5627V23.5773C27.8428 23.6518 27.7824 23.7123 27.7079 23.7123H27.1453C27.0708 23.7123 27.0104 23.6518 27.0104 23.5773V23.2851C27.0104 23.2106 26.9499 23.1501 26.8754 23.1501H25.7542C25.6797 23.1501 25.6193 23.2106 25.6193 23.2851V24.4313C25.6193 24.5059 25.6797 24.5662 25.7542 24.5662H25.7618C25.8363 24.5662 25.8967 24.5058 25.8967 24.4313V23.5627C25.8967 23.4882 25.9571 23.4278 26.0316 23.4278H26.0357C26.1102 23.4278 26.1706 23.4882 26.1706 23.5627V24.4313C26.1706 24.5059 26.2311 24.5662 26.3056 24.5662H26.3167C26.3912 24.5662 26.4517 24.5058 26.4517 24.4313V23.5627C26.4517 23.4882 26.5121 23.4278 26.5866 23.4278H26.5978C26.6723 23.4278 26.7327 23.4882 26.7327 23.5627V24.4313C26.7327 24.5059 26.7932 24.5662 26.8677 24.5662H26.8754C26.9499 24.5662 27.0104 24.5058 27.0104 24.4313V24.1319C27.0104 24.0574 27.0708 23.997 27.1453 23.997H27.9853C28.0598 23.997 28.1203 23.9366 28.1203 23.8621Z" fill="#F5F5F5"/>
<path d="M30.764 24.2815H27.4191C27.3446 24.2815 27.2842 24.3419 27.2842 24.4164V24.4312C27.2842 24.5058 27.3446 24.5662 27.4191 24.5662H30.764C30.8385 24.5662 30.8989 24.5057 30.8989 24.4312V24.4164C30.8989 24.3419 30.8385 24.2815 30.764 24.2815Z" fill="#F5F5F5"/>
<path d="M30.764 23.1501H30.7564C30.6819 23.1501 30.6215 23.2106 30.6215 23.2851V23.5773C30.6215 23.6518 30.561 23.7123 30.4865 23.7123H29.9238C29.8492 23.7123 29.7889 23.6518 29.7889 23.5773V23.2851C29.7889 23.2106 29.7284 23.1501 29.6539 23.1501H28.5329C28.4584 23.1501 28.3979 23.2106 28.3979 23.2851V23.8621C28.3979 23.9366 28.4584 23.997 28.5329 23.997H29.0954C29.17 23.997 29.2304 23.9366 29.2304 23.8621V23.8473C29.2304 23.7727 29.1699 23.7123 29.0954 23.7123H28.8102C28.7358 23.7123 28.6753 23.6519 28.6753 23.5774V23.5628C28.6753 23.4883 28.7358 23.4278 28.8102 23.4278H29.3765C29.451 23.4278 29.5114 23.4883 29.5114 23.5628V23.8621C29.5114 23.9366 29.5719 23.9971 29.6464 23.9971H30.764C30.8385 23.9971 30.8989 23.9366 30.8989 23.8621V23.2851C30.8989 23.2106 30.8385 23.1501 30.764 23.1501Z" fill="#F5F5F5"/>
<path d="M22.5666 23.8621V23.2851C22.5666 23.2106 22.5062 23.1501 22.4317 23.1501H21.8655C21.791 23.1501 21.7305 23.2106 21.7305 23.2851V23.2928C21.7305 23.3673 21.791 23.4278 21.8655 23.4278H22.1507C22.2251 23.4278 22.2856 23.4882 22.2856 23.5627V23.5773C22.2856 23.6518 22.2251 23.7123 22.1507 23.7123H21.5844C21.5099 23.7123 21.4495 23.6518 21.4495 23.5773V23.2851C21.4495 23.2106 21.3891 23.1501 21.3145 23.1501H20.1969C20.1224 23.1501 20.062 23.2106 20.062 23.2851V24.4313C20.062 24.5059 20.1224 24.5662 20.1969 24.5662H20.2045C20.279 24.5662 20.3394 24.5058 20.3394 24.4313V23.5627C20.3394 23.4882 20.3999 23.4278 20.4744 23.4278H20.4821C20.5566 23.4278 20.6171 23.4882 20.6171 23.5627V24.4313C20.6171 24.5059 20.6775 24.5662 20.752 24.5662H20.7632C20.8377 24.5662 20.8981 24.5058 20.8981 24.4313V23.5627C20.8981 23.4882 20.9586 23.4278 21.033 23.4278H21.0371C21.1116 23.4278 21.172 23.4882 21.172 23.5627V24.4313C21.172 24.5059 21.2325 24.5662 21.307 24.5662H21.3145C21.389 24.5662 21.4495 24.5058 21.4495 24.4313V24.1319C21.4495 24.0574 21.5099 23.997 21.5844 23.997H22.4317C22.5063 23.997 22.5666 23.9366 22.5666 23.8621Z" fill="#F5F5F5"/>
<path d="M25.2067 24.2815H21.8655C21.791 24.2815 21.7306 24.3419 21.7306 24.4164V24.4312C21.7306 24.5058 21.791 24.5662 21.8655 24.5662H25.2067C25.2812 24.5662 25.3416 24.5057 25.3416 24.4312V24.4164C25.3416 24.3419 25.2812 24.2815 25.2067 24.2815Z" fill="#F5F5F5"/>
<path d="M24.6517 23.4278C24.7261 23.4278 24.7866 23.3673 24.7866 23.2928V23.2851C24.7866 23.2106 24.7261 23.1501 24.6517 23.1501H24.6441C24.5696 23.1501 24.5092 23.2106 24.5092 23.2851V23.2928C24.5092 23.3673 24.5696 23.4278 24.6441 23.4278H24.6517Z" fill="#F5F5F5"/>
<path d="M25.2068 23.1501H25.1992C25.1247 23.1501 25.0643 23.2106 25.0643 23.2851V23.5773C25.0643 23.6518 25.0038 23.7123 24.9293 23.7123H24.3667C24.2922 23.7123 24.2318 23.6518 24.2318 23.5773V23.2851C24.2318 23.2106 24.1714 23.1501 24.0969 23.1501H22.9756C22.9011 23.1501 22.8407 23.2106 22.8407 23.2851V23.8621C22.8407 23.9366 22.9011 23.997 22.9756 23.997H23.5419C23.6164 23.997 23.6768 23.9366 23.6768 23.8621V23.8473C23.6768 23.7727 23.6164 23.7123 23.5419 23.7123H23.2567C23.1822 23.7123 23.1218 23.6519 23.1218 23.5774V23.5628C23.1218 23.4883 23.1822 23.4278 23.2567 23.4278H23.8193C23.8938 23.4278 23.9542 23.4883 23.9542 23.5628V23.8621C23.9542 23.9366 24.0147 23.9971 24.0892 23.9971H25.2068C25.2813 23.9971 25.3417 23.9366 25.3417 23.8621V23.2851C25.3417 23.2106 25.2813 23.1501 25.2068 23.1501Z" fill="#F5F5F5"/>
<path d="M17.006 23.8621V23.2851C17.006 23.2106 16.9455 23.1501 16.871 23.1501H16.3048C16.2303 23.1501 16.1698 23.2106 16.1698 23.2851V23.2928C16.1698 23.3673 16.2303 23.4278 16.3048 23.4278H16.5934C16.668 23.4278 16.7283 23.4882 16.7283 23.5627V23.5773C16.7283 23.6518 16.6679 23.7123 16.5934 23.7123H16.0272C15.9527 23.7123 15.8922 23.6518 15.8922 23.5773V23.2851C15.8922 23.2106 15.8318 23.1501 15.7573 23.1501H14.6397C14.5652 23.1501 14.5048 23.2106 14.5048 23.2851V24.4313C14.5048 24.5059 14.5652 24.5662 14.6397 24.5662H14.6475C14.7219 24.5662 14.7824 24.5058 14.7824 24.4313V23.5627C14.7824 23.4882 14.8428 23.4278 14.9173 23.4278H14.9249C14.9994 23.4278 15.0598 23.4882 15.0598 23.5627V24.4313C15.0598 24.5059 15.1202 24.5662 15.1947 24.5662H15.2023C15.2768 24.5662 15.3372 24.5058 15.3372 24.4313V23.5627C15.3372 23.4882 15.3977 23.4278 15.4722 23.4278H15.4799C15.5544 23.4278 15.6149 23.4882 15.6149 23.5627V24.4313C15.6149 24.5059 15.6753 24.5662 15.7498 24.5662H15.7574C15.8319 24.5662 15.8923 24.5058 15.8923 24.4313V24.1319C15.8923 24.0574 15.9527 23.997 16.0272 23.997H16.871C16.9456 23.997 17.006 23.9366 17.006 23.8621Z" fill="#F5F5F5"/>
<path d="M19.091 23.4278C19.1655 23.4278 19.226 23.3673 19.226 23.2928V23.2851C19.226 23.2106 19.1655 23.1501 19.091 23.1501H19.087C19.0124 23.1501 18.952 23.2106 18.952 23.2851V23.2928C18.952 23.3673 19.0124 23.4278 19.087 23.4278H19.091Z" fill="#F5F5F5"/>
<path d="M19.6497 23.1501H19.6419C19.5675 23.1501 19.507 23.2106 19.507 23.2851V23.5773C19.507 23.6518 19.4466 23.7123 19.3721 23.7123H18.8095C18.735 23.7123 18.6746 23.6518 18.6746 23.5773V23.2851C18.6746 23.2106 18.6142 23.1501 18.5397 23.1501H17.4184C17.3439 23.1501 17.2834 23.2106 17.2834 23.2851V23.8621C17.2834 23.9366 17.3439 23.997 17.4184 23.997H17.9846C18.0591 23.997 18.1196 23.9366 18.1196 23.8621V23.8473C18.1196 23.7727 18.0591 23.7123 17.9846 23.7123H17.696C17.6215 23.7123 17.5611 23.6519 17.5611 23.5774V23.5628C17.5611 23.4883 17.6215 23.4278 17.696 23.4278H18.2586C18.333 23.4278 18.3935 23.4883 18.3935 23.5628V23.8621C18.3935 23.9366 18.4539 23.9971 18.5284 23.9971H19.6496C19.7241 23.9971 19.7846 23.9366 19.7846 23.8621V23.2851C19.7846 23.2106 19.7242 23.1501 19.6497 23.1501Z" fill="#F5F5F5"/>
<path d="M19.6497 24.2815H16.3049C16.2304 24.2815 16.1699 24.3419 16.1699 24.4164V24.4312C16.1699 24.5058 16.2304 24.5662 16.3049 24.5662H19.6497C19.7242 24.5662 19.7847 24.5057 19.7847 24.4312V24.4164C19.7847 24.3419 19.7242 24.2815 19.6497 24.2815Z" fill="#F5F5F5"/>
<path d="M14.0924 23.1501H14.0846C14.0101 23.1501 13.9497 23.2106 13.9497 23.2851V23.5773C13.9497 23.6518 13.8893 23.7123 13.8148 23.7123H13.2522C13.1777 23.7123 13.1172 23.6518 13.1172 23.5773V23.2851C13.1172 23.2106 13.0568 23.1501 12.9823 23.1501H11.861C11.7865 23.1501 11.7261 23.2106 11.7261 23.2851V23.8621C11.7261 23.9366 11.7865 23.997 11.861 23.997H12.4238C12.4982 23.997 12.5587 23.9366 12.5587 23.8621V23.8473C12.5587 23.7727 12.4982 23.7123 12.4238 23.7123H12.1421C12.0676 23.7123 12.0071 23.6519 12.0071 23.5774V23.5628C12.0071 23.4883 12.0676 23.4278 12.1421 23.4278H12.7012C12.7757 23.4278 12.8361 23.4883 12.8361 23.5628V23.8621C12.8361 23.9366 12.8965 23.9971 12.971 23.9971H14.0923C14.1668 23.9971 14.2272 23.9366 14.2272 23.8621V23.2851C14.2273 23.2106 14.167 23.1501 14.0924 23.1501Z" fill="#F5F5F5"/>
<path d="M13.5338 23.4278C13.6083 23.4278 13.6687 23.3673 13.6687 23.2928V23.2851C13.6687 23.2106 13.6083 23.1501 13.5338 23.1501H13.5297C13.4552 23.1501 13.3948 23.2106 13.3948 23.2851V23.2928C13.3948 23.3673 13.4552 23.4278 13.5297 23.4278H13.5338Z" fill="#F5F5F5"/>
<path d="M14.0925 24.2815H10.7476C10.6731 24.2815 10.6127 24.3419 10.6127 24.4164V24.4312C10.6127 24.5058 10.6731 24.5662 10.7476 24.5662H14.0925C14.167 24.5662 14.2274 24.5057 14.2274 24.4312V24.4164C14.2274 24.3419 14.167 24.2815 14.0925 24.2815Z" fill="#F5F5F5"/>
<path d="M11.4451 23.8621V23.2851C11.4451 23.2106 11.3847 23.1501 11.3102 23.1501H10.7476C10.6732 23.1501 10.6127 23.2106 10.6127 23.2851V23.2928C10.6127 23.3673 10.6732 23.4278 10.7476 23.4278H11.0363C11.1108 23.4278 11.1712 23.4882 11.1712 23.5627V23.5773C11.1712 23.6518 11.1108 23.7123 11.0363 23.7123H10.4702C10.3957 23.7123 10.3353 23.6518 10.3353 23.5773V23.2851C10.3353 23.2106 10.2749 23.1501 10.2004 23.1501H9.08256C9.00807 23.1501 8.94763 23.2106 8.94763 23.2851V24.4313C8.94763 24.5059 9.00807 24.5662 9.08256 24.5662H9.09032C9.16482 24.5662 9.22525 24.5058 9.22525 24.4313V23.5627C9.22525 23.4882 9.28569 23.4278 9.36018 23.4278H9.36775C9.44225 23.4278 9.50268 23.4882 9.50268 23.5627V24.4313C9.50268 24.5059 9.56312 24.5662 9.63761 24.5662H9.64537C9.71987 24.5662 9.7803 24.5058 9.7803 24.4313V23.5627C9.7803 23.4882 9.84067 23.4278 9.91523 23.4278H9.9228C9.9973 23.4278 10.0577 23.4882 10.0577 23.5627V24.4313C10.0577 24.5059 10.1182 24.5662 10.1927 24.5662H10.2004C10.2749 24.5662 10.3354 24.5058 10.3354 24.4313V24.1319C10.3354 24.0574 10.3958 23.997 10.4703 23.997H11.3103C11.3848 23.997 11.4451 23.9366 11.4451 23.8621Z" fill="#F5F5F5"/>
<path d="M7.98023 23.4278C8.05473 23.4278 8.11516 23.3673 8.11516 23.2928V23.2851C8.11516 23.2106 8.05473 23.1501 7.98023 23.1501H7.96904C7.89448 23.1501 7.83411 23.2106 7.83411 23.2851V23.2928C7.83411 23.3673 7.89454 23.4278 7.96904 23.4278H7.98023Z" fill="#F5F5F5"/>
<path d="M8.53521 23.1501H8.52745C8.45289 23.1501 8.39252 23.2106 8.39252 23.2851V23.5773C8.39252 23.6518 8.33208 23.7123 8.25759 23.7123H7.69153C7.61697 23.7123 7.5566 23.6518 7.5566 23.5773V23.2851C7.5566 23.2106 7.49617 23.1501 7.42167 23.1501H6.30388C6.22932 23.1501 6.16895 23.2106 6.16895 23.2851V23.8621C6.16895 23.9366 6.22938 23.997 6.30388 23.997H6.86662C6.94112 23.997 7.00155 23.9366 7.00155 23.8621V23.8473C7.00155 23.7727 6.94112 23.7123 6.86662 23.7123H6.57781C6.50331 23.7123 6.44288 23.6519 6.44288 23.5774V23.5628C6.44288 23.4883 6.50331 23.4278 6.57781 23.4278H7.14768C7.22224 23.4278 7.28261 23.4883 7.28261 23.5628V23.8621C7.28261 23.9366 7.34304 23.9971 7.41754 23.9971H8.53515C8.60964 23.9971 8.67008 23.9366 8.67008 23.8621V23.2851C8.67014 23.2106 8.6097 23.1501 8.53521 23.1501Z" fill="#F5F5F5"/>
<path d="M5.88788 23.8621V23.2851C5.88788 23.2106 5.82744 23.1501 5.75295 23.1501H5.19039C5.1159 23.1501 5.05546 23.2106 5.05546 23.2851V23.2928C5.05546 23.3673 5.1159 23.4278 5.19039 23.4278H5.47208C5.54658 23.4278 5.60701 23.4882 5.60701 23.5627V23.5773C5.60701 23.6518 5.54658 23.7123 5.47208 23.7123H4.91296C4.83847 23.7123 4.77803 23.6518 4.77803 23.5773V23.2851C4.77803 23.2106 4.7176 23.1501 4.6431 23.1501H3.52543C3.45094 23.1501 3.3905 23.2106 3.3905 23.2851V24.4313C3.3905 24.5059 3.45094 24.5662 3.52543 24.5662H3.52938C3.60387 24.5662 3.66431 24.5058 3.66431 24.4313V23.5627C3.66431 23.4882 3.72474 23.4278 3.79924 23.4278H3.81043C3.88493 23.4278 3.94536 23.4882 3.94536 23.5627V24.4313C3.94536 24.5059 4.0058 24.5662 4.08029 24.5662H4.08805C4.16255 24.5662 4.22298 24.5058 4.22298 24.4313V23.5627C4.22298 23.4882 4.28342 23.4278 4.35791 23.4278H4.36548C4.43998 23.4278 4.50041 23.4882 4.50041 23.5627V24.4313C4.50041 24.5059 4.56085 24.5662 4.63534 24.5662H4.6431C4.7176 24.5662 4.77803 24.5058 4.77803 24.4313V24.1319C4.77803 24.0574 4.83847 23.997 4.91296 23.997H5.75295C5.82744 23.997 5.88788 23.9366 5.88788 23.8621Z" fill="#F5F5F5"/>
<path d="M8.53522 24.2815H5.19035C5.11585 24.2815 5.05542 24.3419 5.05542 24.4164V24.4312C5.05542 24.5058 5.11585 24.5662 5.19035 24.5662H8.53522C8.60971 24.5662 8.67015 24.5057 8.67015 24.4312V24.4164C8.67015 24.3419 8.60971 24.2815 8.53522 24.2815Z" fill="#F5F5F5"/>
<path d="M1.44079 23.862V23.8472C1.44079 23.7726 1.38036 23.7123 1.30586 23.7123H1.02086C0.946367 23.7123 0.885932 23.6518 0.885932 23.5773V23.5627C0.885932 23.4882 0.946367 23.4278 1.02086 23.4278H1.58692C1.66148 23.4278 1.72185 23.4882 1.72185 23.5627V23.8621C1.72185 23.9366 1.78228 23.997 1.85678 23.997H2.97458C3.04907 23.997 3.1095 23.9366 3.1095 23.8621V23.2851C3.1095 23.2106 3.04907 23.1501 2.97458 23.1501H2.9705C2.89601 23.1501 2.83557 23.2106 2.83557 23.2851V23.5773C2.83557 23.6518 2.77514 23.7123 2.70064 23.7123H2.1379C2.0634 23.7123 2.00297 23.6518 2.00297 23.5773V23.2851C2.00297 23.2106 1.94253 23.1501 1.86804 23.1501H0.857178V23.997H1.3058C1.38036 23.9969 1.44079 23.9365 1.44079 23.862Z" fill="#F5F5F5"/>
<path d="M3.1095 24.4312V24.4164C3.1095 24.3419 3.04907 24.2815 2.97458 24.2815H0.857178V24.5662H2.97458C3.04907 24.5662 3.1095 24.5057 3.1095 24.4312Z" fill="#F5F5F5"/>
<path d="M2.41955 23.1501H2.41179C2.33723 23.1501 2.27686 23.2106 2.27686 23.2851V23.2928C2.27686 23.3673 2.33729 23.4278 2.41179 23.4278H2.41955C2.49404 23.4278 2.55448 23.3673 2.55448 23.2928V23.2851C2.55448 23.2106 2.49404 23.1501 2.41955 23.1501Z" fill="#F5F5F5"/>
<path d="M31.1765 22.4242V22.7236C31.1765 22.7981 31.2369 22.8585 31.3114 22.8585H33.4287V22.2893H31.3114C31.2369 22.2893 31.1765 22.3497 31.1765 22.4242Z" fill="#F5F5F5"/>
<path d="M25.7542 22.8585H27.9853C28.0598 22.8585 28.1203 22.7981 28.1203 22.7236V22.4242C28.1203 22.3497 28.0598 22.2893 27.9853 22.2893H25.7542C25.6797 22.2893 25.6193 22.3497 25.6193 22.4242V22.7236C25.6192 22.7981 25.6796 22.8585 25.7542 22.8585Z" fill="#F5F5F5"/>
<path d="M30.7639 22.2893H28.5328C28.4583 22.2893 28.3978 22.3497 28.3978 22.4242V22.7236C28.3978 22.7981 28.4583 22.8585 28.5328 22.8585H30.7639C30.8384 22.8585 30.8988 22.7981 30.8988 22.7236V22.4242C30.8988 22.3497 30.8385 22.2893 30.7639 22.2893Z" fill="#F5F5F5"/>
<path d="M25.2068 22.2893H22.9756C22.9011 22.2893 22.8407 22.3497 22.8407 22.4242V22.7236C22.8407 22.7981 22.9011 22.8585 22.9756 22.8585H25.2068C25.2813 22.8585 25.3417 22.7981 25.3417 22.7236V22.4242C25.3417 22.3497 25.2813 22.2893 25.2068 22.2893Z" fill="#F5F5F5"/>
<path d="M20.1969 22.8585H22.4317C22.5063 22.8585 22.5666 22.7981 22.5666 22.7236V22.4242C22.5666 22.3497 22.5062 22.2893 22.4317 22.2893H20.1969C20.1224 22.2893 20.062 22.3497 20.062 22.4242V22.7236C20.062 22.7981 20.1224 22.8585 20.1969 22.8585Z" fill="#F5F5F5"/>
<path d="M14.6397 22.8585H16.871C16.9455 22.8585 17.006 22.7981 17.006 22.7236V22.4242C17.006 22.3497 16.9455 22.2893 16.871 22.2893H14.6397C14.5652 22.2893 14.5048 22.3497 14.5048 22.4242V22.7236C14.5048 22.7981 14.5652 22.8585 14.6397 22.8585Z" fill="#F5F5F5"/>
<path d="M19.6497 22.2893H17.4184C17.3439 22.2893 17.2834 22.3497 17.2834 22.4242V22.7236C17.2834 22.7981 17.3439 22.8585 17.4184 22.8585H19.6497C19.7242 22.8585 19.7846 22.7981 19.7846 22.7236V22.4242C19.7846 22.3497 19.7242 22.2893 19.6497 22.2893Z" fill="#F5F5F5"/>
<path d="M14.0925 22.2893H11.8611C11.7866 22.2893 11.7262 22.3497 11.7262 22.4242V22.7236C11.7262 22.7981 11.7866 22.8585 11.8611 22.8585H14.0925C14.167 22.8585 14.2274 22.7981 14.2274 22.7236V22.4242C14.2274 22.3497 14.167 22.2893 14.0925 22.2893Z" fill="#F5F5F5"/>
<path d="M9.08256 22.8585H11.3102C11.3848 22.8585 11.4451 22.7981 11.4451 22.7236V22.4242C11.4451 22.3497 11.3847 22.2893 11.3102 22.2893H9.08256C9.00807 22.2893 8.94763 22.3497 8.94763 22.4242V22.7236C8.94763 22.7981 9.008 22.8585 9.08256 22.8585Z" fill="#F5F5F5"/>
<path d="M8.53521 22.2893H6.30388C6.22932 22.2893 6.16895 22.3497 6.16895 22.4242V22.7236C6.16895 22.7981 6.22938 22.8585 6.30388 22.8585H8.53521C8.6097 22.8585 8.67014 22.7981 8.67014 22.7236V22.4242C8.67014 22.3497 8.6097 22.2893 8.53521 22.2893Z" fill="#F5F5F5"/>
<path d="M3.52543 22.8585H5.75295C5.82744 22.8585 5.88788 22.7981 5.88788 22.7236V22.4242C5.88788 22.3497 5.82744 22.2893 5.75295 22.2893H3.52543C3.45094 22.2893 3.3905 22.3497 3.3905 22.4242V22.7236C3.3905 22.7981 3.45094 22.8585 3.52543 22.8585Z" fill="#F5F5F5"/>
<path d="M3.1095 22.7236V22.4242C3.1095 22.3497 3.04907 22.2893 2.97458 22.2893H0.857178V22.8585H2.97458C3.04907 22.8585 3.1095 22.7981 3.1095 22.7236Z" fill="#F5F5F5"/>
<path d="M16.5874 13.9672C16.7867 14.0204 16.9993 13.9619 17.1453 13.8131C17.3658 14.0363 17.7272 14.0416 17.9557 13.8238C18.1045 13.6803 18.1656 13.4624 18.1124 13.2659C17.9186 13.5794 17.5093 13.6804 17.1958 13.4838C17.1799 13.4731 17.1586 13.4624 17.1453 13.4518C16.8504 13.6697 16.4333 13.6112 16.2101 13.3191C16.2021 13.303 16.1862 13.2818 16.1756 13.2659C16.0959 13.5741 16.2818 13.8928 16.5874 13.9672Z" fill="#FF4B55"/>
<path d="M17.8251 20.1748C18.5393 19.7828 19.1353 19.1649 19.4621 18.3513C20.0186 16.9565 19.6682 15.3822 18.6036 14.361C18.567 14.3259 18.5114 14.3729 18.538 14.4161C19.588 16.1283 19.1743 18.3785 17.5496 19.6115L17.6272 14.6376C17.6283 14.5701 17.5982 14.5058 17.5457 14.4633L17.2815 14.2498C17.2006 14.1844 17.0849 14.1847 17.0043 14.2505L16.7439 14.4634C16.692 14.5059 16.6623 14.5698 16.6633 14.6368L16.7388 19.6142C15.1138 18.3818 14.6993 16.1297 15.7476 14.4162C15.774 14.373 15.7184 14.3261 15.6819 14.3612C14.6193 15.3824 14.2667 16.9566 14.8231 18.3513C15.1499 19.1649 15.7459 19.7827 16.4603 20.1748C16.0057 20.3306 15.5278 20.4132 15.0446 20.3993C14.9935 20.3979 14.9832 20.4697 15.0321 20.4845C15.646 20.6709 16.2774 20.6837 16.871 20.5506L17.1041 21.0029C17.1202 21.0341 17.1649 21.0342 17.1811 21.003L17.4158 20.551C18.0095 20.6838 18.6411 20.6708 19.2554 20.4845C19.3043 20.4697 19.2941 20.3979 19.243 20.3994C18.7595 20.4131 18.2805 20.3306 17.8251 20.1748Z" fill="#FF4B55"/>
<path d="M20.7322 15.5508C20.3667 14.8678 19.7596 14.3502 19.037 14.0966C18.9917 14.0807 18.9564 14.1405 18.9934 14.171C20.5887 15.4852 20.9085 17.8257 19.6748 19.5203C19.611 19.6053 19.5419 19.6957 19.4755 19.7699C20.99 18.957 21.5506 17.0653 20.7322 15.5508Z" fill="#FF4B55"/>
<path d="M14.6133 19.5205C13.3796 17.8259 13.6968 15.4854 15.2919 14.1713C15.3289 14.1407 15.2936 14.081 15.2483 14.0969C14.5265 14.3505 13.9237 14.868 13.5558 15.551C12.7322 17.0655 13.2981 18.9572 14.8152 19.7702C14.7435 19.6958 14.6744 19.6055 14.6133 19.5205Z" fill="#FF4B55"/>
</g>
<defs>
<clipPath id="clip0_1689_761">
<rect x="0.857178" y="0.857178" width="32.5714" height="32.5714" rx="16.2857" fill="white"/>
</clipPath>
</defs>
</svg>
