<svg width="34" height="34" viewBox="0 0 34 34" fill="none" xmlns="http://www.w3.org/2000/svg">
<g clip-path="url(#clip0_1689_3685)">
<path d="M26.3036 0.857178H7.98218C4.04714 0.857178 0.857178 4.04714 0.857178 7.98218V26.3036C0.857178 30.2386 4.04714 33.4286 7.98218 33.4286H26.3036C30.2386 33.4286 33.4286 30.2386 33.4286 26.3036V7.98218C33.4286 4.04714 30.2386 0.857178 26.3036 0.857178Z" fill="#27AE60"/>
<path d="M5.74632 13.0545C5.81242 13.478 6.06841 13.6109 6.291 13.5936C6.55348 13.5732 6.78364 13.3333 6.78364 13.0798V11.6263C6.78364 11.5535 6.84287 11.4942 6.91577 11.4942C6.98868 11.4942 7.0479 11.5535 7.0479 11.6263V13.086C7.0479 13.2616 7.13461 13.4252 7.28004 13.5235C7.36878 13.5836 7.47216 13.6146 7.5763 13.6146C7.64265 13.6146 7.70919 13.6019 7.77268 13.5766L7.90475 13.5238C7.9169 14.7439 7.84272 15.8163 7.84132 15.8359C7.83102 15.9815 7.94057 16.1079 8.08612 16.1182C8.09254 16.1187 8.09891 16.119 8.1052 16.119C8.24261 16.119 8.35865 16.0127 8.36857 15.8736C8.37474 15.7876 8.45617 14.6133 8.43174 13.313L8.51158 13.2811C8.58162 13.2532 8.66025 13.2566 8.72762 13.2901C9.01873 13.4352 9.36894 13.3787 9.59904 13.1487L9.64668 13.1012C9.86024 12.8873 9.93366 12.5765 9.83804 12.2898L9.61297 11.6147C9.73466 11.6513 9.86832 11.5974 9.92704 11.4802C9.99231 11.3496 9.93945 11.1909 9.80884 11.1256L9.28026 10.8613C9.18464 10.8133 9.06994 10.8281 8.98889 10.898C8.9081 10.9682 8.87757 11.0799 8.91135 11.1813L9.33656 12.457C9.36843 12.5525 9.34394 12.6563 9.27281 12.7275L9.22529 12.775C9.1564 12.8439 9.05149 12.8607 8.9637 12.8173C8.79238 12.7318 8.59746 12.7157 8.4145 12.7624C8.37735 11.9141 8.286 11.0694 8.0914 10.4855C8.04534 10.3472 7.89591 10.2721 7.75703 10.3186C7.61854 10.3645 7.54373 10.5142 7.58991 10.6528C7.78032 11.2239 7.86334 12.0941 7.89266 12.9594L7.5763 13.086V11.6262C7.5763 11.2619 7.27991 10.9655 6.91558 10.9655C6.55132 10.9655 6.25487 11.2618 6.25487 11.6262V12.9056L5.98526 11.5738C5.95651 11.4306 5.81725 11.3372 5.67386 11.3671C5.53072 11.3962 5.43823 11.5356 5.46724 11.6786L5.74632 13.0545Z" fill="#F5F5F5"/>
<path d="M6.25523 10.8334C6.40116 10.8334 6.51949 10.7152 6.51949 10.5692V10.3049C6.51949 10.1588 6.40116 10.0406 6.25523 10.0406C6.10929 10.0406 5.99097 10.1588 5.99097 10.3049V10.5692C5.99097 10.7152 6.10929 10.8334 6.25523 10.8334Z" fill="#F5F5F5"/>
<path d="M8.89781 10.569H9.16207C9.308 10.569 9.42633 10.4509 9.42633 10.3048C9.42633 10.1587 9.308 10.0405 9.16207 10.0405H8.89781C8.75187 10.0405 8.63354 10.1587 8.63354 10.3048C8.63354 10.4509 8.75187 10.569 8.89781 10.569Z" fill="#F5F5F5"/>
<path d="M7.17624 14.0424L5.85487 14.8352C5.72967 14.9103 5.68921 15.0726 5.76428 15.1978C5.81383 15.2804 5.90131 15.3261 5.99113 15.3261C6.03744 15.3261 6.08433 15.3139 6.12689 15.2884L7.44826 14.4956C7.57345 14.4205 7.61391 14.2582 7.53885 14.133C7.46372 14.0078 7.30156 13.9673 7.17624 14.0424Z" fill="#F5F5F5"/>
<path d="M10.7392 14.5098L10.7454 14.5056C10.7676 14.595 10.8056 14.6814 10.8673 14.7539C10.9747 14.8804 11.1357 14.9439 11.3177 14.9289C11.5758 14.9101 11.7513 14.7922 11.8674 14.6399C11.8851 14.652 11.9036 14.6631 11.9231 14.6729C12.0659 14.7449 12.2311 14.7395 12.3884 14.6579C12.7878 14.4523 12.8738 13.9764 12.8617 13.7276C12.8546 13.5825 12.7312 13.48 12.5866 13.4772C12.4414 13.4834 12.3285 13.6066 12.3336 13.7515C12.3337 13.7549 12.3397 14.0685 12.1479 14.1849C12.1167 14.1412 12.0795 14.0432 12.0656 13.9622C12.0433 13.8262 11.9184 13.7314 11.7839 13.7423C11.6469 13.7531 11.541 13.8683 11.5405 14.0058C11.5404 14.0442 11.5319 14.3834 11.27 14.4117C11.2395 14.3702 11.239 14.1952 11.269 14.0659C11.2943 13.9599 11.2517 13.8491 11.162 13.7872C11.072 13.725 10.9535 13.725 10.8633 13.7862L10.7157 13.8865C10.6457 12.354 10.4844 10.568 10.4823 10.5452C10.4692 10.4001 10.3414 10.292 10.1952 10.3059C10.0498 10.3191 9.94267 10.4476 9.95584 10.5931C9.95813 10.6176 10.1448 12.6838 10.2024 14.2618C10.1889 14.2746 10.1749 14.2887 10.1617 14.301C10.0572 14.0375 9.85005 13.8715 9.58318 13.8463C9.20663 13.813 8.7986 14.0692 8.65241 14.4352C8.52632 14.7501 8.60572 15.0595 8.85452 15.2234C9.03334 15.3414 9.30333 15.3785 9.64272 15.2596C9.55989 15.5507 9.409 15.8459 9.21287 16.0743C9.03722 16.279 8.74395 16.5151 8.36855 16.5046C8.1501 16.4961 7.98221 16.4246 7.85536 16.2857C7.54937 15.9515 7.57571 15.3466 7.57596 15.3402C7.5836 15.1946 7.47208 15.0705 7.32665 15.0625C7.18021 15.047 7.05616 15.166 7.0482 15.3118C7.04642 15.3453 7.00806 16.1403 7.46317 16.6401C7.68716 16.8866 7.98489 17.0185 8.34788 17.0327C8.36557 17.0335 8.38325 17.0337 8.40106 17.0337C8.84313 17.0337 9.27209 16.8169 9.61378 16.4187C9.93516 16.0444 10.1534 15.5361 10.219 15.0641C10.2181 15.9682 9.67332 16.9879 8.9509 17.4371C8.64414 17.6275 8.16594 17.7994 7.62717 17.5338C6.96315 17.2061 7.04222 16.447 7.04572 16.4161C7.06392 16.2713 6.96105 16.1392 6.81632 16.1211C6.67217 16.1035 6.53927 16.2055 6.52134 16.3506C6.51542 16.3978 6.38844 17.5119 7.39338 18.0077C7.65147 18.1352 7.9214 18.1984 8.19342 18.1984C8.54286 18.1984 8.89555 18.0939 9.22985 17.8859C10.1093 17.3393 10.7476 16.1516 10.7476 15.062C10.7479 14.8917 10.7447 14.7055 10.7392 14.5098ZM9.14569 14.7823C9.09849 14.7511 9.13538 14.6512 9.14333 14.6313C9.19894 14.492 9.37305 14.3715 9.51212 14.3715C9.51924 14.3715 9.52643 14.3717 9.53343 14.3725C9.56721 14.3756 9.65691 14.3841 9.69552 14.5836C9.69966 14.6048 9.70316 14.6264 9.70583 14.6486C9.41129 14.8216 9.21382 14.827 9.14569 14.7823Z" fill="#F5F5F5"/>
<path d="M6.38852 17.213C6.26332 17.1394 6.10155 17.1815 6.02718 17.3067C6.01503 17.3271 5.99893 17.3493 5.98252 17.3694C5.97966 17.3627 5.97686 17.3555 5.974 17.3477C5.86381 17.0538 5.94225 16.6008 5.98189 16.4511C6.01916 16.3102 5.93532 16.1657 5.79441 16.128C5.65375 16.0919 5.50909 16.1739 5.4713 16.3149C5.45209 16.3864 5.28962 17.0279 5.47906 17.5332C5.60038 17.8563 5.78658 17.9379 5.92151 17.949C5.93354 17.95 5.94537 17.9506 5.95714 17.9506C6.24169 17.9506 6.43095 17.6638 6.48363 17.573C6.55666 17.447 6.51397 17.2868 6.38852 17.213Z" fill="#F5F5F5"/>
<path d="M11.2654 12.4191C11.3226 12.4191 11.3801 12.4007 11.4285 12.3626L12.7609 11.3165C12.7793 11.3021 12.7911 11.2832 12.8045 11.2654C12.9964 11.1497 13.1262 10.9413 13.1262 10.7012C13.1262 10.3369 12.8298 10.0405 12.4655 10.0405C12.1012 10.0405 11.8048 10.3368 11.8048 10.7012C11.8048 10.9051 11.8995 11.0854 12.0451 11.2067L11.102 11.947C10.9873 12.0371 10.9673 12.2033 11.0573 12.3179C11.1096 12.3845 11.1871 12.4191 11.2654 12.4191ZM12.4656 10.5691C12.5385 10.5691 12.5977 10.6285 12.5977 10.7012C12.5977 10.774 12.5385 10.8334 12.4656 10.8334C12.3927 10.8334 12.3334 10.774 12.3334 10.7012C12.3334 10.6285 12.3927 10.5691 12.4656 10.5691Z" fill="#F5F5F5"/>
<path d="M12.1527 12.1684C12.0135 12.122 11.8644 12.197 11.8184 12.3354C11.7901 12.4201 11.6624 12.856 11.9214 13.1148C12.0219 13.2155 12.154 13.2658 12.3162 13.2655C12.4246 13.2655 12.5465 13.2433 12.6813 13.1982C12.8198 13.1522 12.8946 13.0025 12.8484 12.8639C12.8022 12.7256 12.6528 12.6502 12.514 12.6969C12.3664 12.746 12.304 12.738 12.2983 12.7431C12.2826 12.7039 12.293 12.5859 12.3201 12.5016C12.3657 12.3635 12.2908 12.2143 12.1527 12.1684Z" fill="#F5F5F5"/>
<path d="M15.1773 11.076C15.2021 11.0832 15.227 11.0865 15.2515 11.0865C15.366 11.0865 15.4714 11.0117 15.5051 10.8963L15.6593 10.3678C15.7002 10.2277 15.6197 10.0808 15.4796 10.0401C15.3391 9.99954 15.1928 10.0796 15.1519 10.2197L14.9977 10.7482C14.9568 10.8884 15.0374 11.0352 15.1773 11.076Z" fill="#F5F5F5"/>
<path d="M13.6371 11.045C13.679 11.0695 13.7249 11.0811 13.7702 11.0811C13.8611 11.0811 13.9494 11.0344 13.9986 10.9503C14.0723 10.8243 14.0298 10.6623 13.9039 10.5887C13.8507 10.5577 13.8579 10.4702 13.8599 10.4529C13.8677 10.3835 13.9092 10.2989 13.9812 10.2764C14.1206 10.233 14.1984 10.0849 14.155 9.94553C14.1113 9.80589 13.9635 9.72873 13.824 9.7716C13.5605 9.85367 13.3685 10.0976 13.3346 10.3928C13.3033 10.6677 13.4192 10.9175 13.6371 11.045Z" fill="#F5F5F5"/>
<path d="M11.5406 15.3262C11.3947 15.3262 11.2764 15.4444 11.2764 15.5904C11.2764 15.7194 11.3687 15.8268 11.4911 15.8501C11.505 15.8704 11.5406 15.9404 11.5406 16.119C11.5406 16.265 11.659 16.3832 11.8049 16.3832C11.9508 16.3832 12.0692 16.265 12.0692 16.119C12.0692 15.3352 11.5622 15.3262 11.5406 15.3262Z" fill="#F5F5F5"/>
<path d="M16.0243 14.2319C16.0575 14.2373 16.0905 14.2399 16.1237 14.2399C16.3313 14.2399 16.5411 14.1351 16.7489 13.9273C16.8521 13.8241 16.8521 13.6568 16.7489 13.5537C16.6456 13.4504 16.4784 13.4504 16.3752 13.5537C16.2171 13.7119 16.1321 13.7152 16.1103 13.7103C16.0599 13.703 16.0142 13.6373 16.004 13.6192C15.9377 13.4907 15.7805 13.4393 15.6511 13.5041C15.5205 13.5694 15.4675 13.7281 15.5329 13.8587C15.5492 13.8915 15.7018 14.1795 16.0243 14.2319Z" fill="#F5F5F5"/>
<path d="M20.5164 12.3746C20.5147 12.3705 20.5131 12.3666 20.5119 12.3629C20.465 12.2257 20.3154 12.151 20.1783 12.1978C20.0398 12.2437 19.9649 12.3934 20.0111 12.532C20.0317 12.594 20.1494 12.9047 20.4411 12.944C20.4605 12.9466 20.4799 12.9478 20.4991 12.9478C20.6822 12.9478 20.854 12.8294 21.0103 12.595C21.0912 12.4737 21.0585 12.3096 20.937 12.2285C20.8154 12.1477 20.6513 12.1802 20.5705 12.3018C20.5495 12.333 20.5315 12.3568 20.5164 12.3746Z" fill="#F5F5F5"/>
<path d="M19.9976 17.176C19.9976 16.049 19.9481 14.9918 19.8793 14.0655C20.2546 14.7162 20.5921 15.3739 20.8072 15.9475C20.8471 16.0536 20.9477 16.1189 21.0547 16.1189C21.0856 16.1189 21.1169 16.1135 21.1475 16.1021C21.2841 16.0508 21.3534 15.8985 21.3022 15.7617C20.9677 14.8699 20.3664 13.8079 19.7739 12.8651C19.6294 11.4415 19.4677 10.5379 19.4648 10.5218C19.4387 10.3781 19.3014 10.2811 19.1575 10.3092C19.0139 10.3353 18.9186 10.4728 18.9447 10.6163C18.9468 10.6278 19.0301 11.0932 19.1296 11.8767C18.9266 11.5754 18.738 11.3036 18.5797 11.0798L18.5926 11.084C18.7319 11.1304 18.8808 11.0553 18.927 10.917C18.9731 10.7783 18.8983 10.6287 18.7598 10.5827L17.967 10.3185C17.8571 10.2813 17.7364 10.3205 17.669 10.4145C17.651 10.4395 17.6386 10.467 17.6304 10.4954C17.4722 10.3785 17.2693 10.2834 17.0788 10.3631C16.9636 10.4109 16.8262 10.5311 16.8262 10.8334C16.8262 11.0654 16.9147 11.3162 17.0086 11.5821C17.1642 12.0229 17.2616 12.3471 17.0969 12.5016C17.0058 12.5871 16.9148 12.6193 16.826 12.5969C16.663 12.5556 16.5017 12.3385 16.3942 12.0162C16.3896 12.0022 16.3798 11.9921 16.3732 11.9794C16.4288 11.57 16.4045 11.0768 16.2926 10.5172C16.2641 10.3739 16.1252 10.2808 15.9815 10.3099C15.8385 10.3386 15.7457 10.4777 15.7743 10.621C15.9468 11.484 15.8951 12.188 15.6358 12.5042C15.5355 12.6265 15.4099 12.6833 15.2405 12.6833C15.187 12.6833 15.1505 12.6662 15.1141 12.6244C14.9055 12.3841 14.9064 11.6089 14.9737 11.1348C14.9844 11.0591 14.9616 10.9822 14.9115 10.9245C14.8613 10.8666 14.7885 10.8334 14.712 10.8334C14.2572 10.8334 14.0848 11.3506 13.9327 11.8069C13.8659 12.0074 13.7416 12.3803 13.6548 12.4191C13.4948 12.4191 13.3915 11.9494 13.3906 11.626C13.3902 11.4802 13.272 11.3622 13.1263 11.3622C13.1263 11.3622 13.1261 11.3622 13.1259 11.3622C12.9801 11.3622 12.8621 11.4804 12.8621 11.6262C12.8621 12.2358 13.0697 12.9476 13.6549 12.9476C14.0907 12.9476 14.2672 12.4727 14.4149 12.0314C14.4406 12.3824 14.5198 12.7461 14.7147 12.9706C14.8516 13.1285 15.0334 13.2119 15.2405 13.2119C15.5668 13.2119 15.8447 13.0831 16.0445 12.8394C16.0806 12.7954 16.1118 12.7447 16.1426 12.6936C16.2961 12.9118 16.4843 13.0555 16.6964 13.1091C16.7586 13.1248 16.8212 13.1328 16.8831 13.1328C17.0871 13.1328 17.2865 13.0487 17.4586 12.8869C17.4945 12.8532 17.5196 12.8165 17.5469 12.7803C17.6115 12.7987 17.677 12.8097 17.7421 12.8097C17.9562 12.8097 18.1623 12.7235 18.2902 12.6415C18.4125 12.563 18.4479 12.4009 18.3702 12.2781C18.2924 12.1555 18.1295 12.1189 18.0063 12.1958C18.0041 12.1969 17.8276 12.2983 17.7071 12.2745C17.7074 11.9848 17.6026 11.6771 17.5069 11.406C17.4525 11.2517 17.3966 11.0935 17.3703 10.9642C17.3921 10.9826 17.4133 11.0016 17.4324 11.0202C17.5354 11.1235 17.7027 11.1235 17.8059 11.0202C17.823 11.0032 17.8329 10.9824 17.8443 10.9624C18.1182 11.3398 18.6817 12.1328 19.2612 13.047C19.3718 14.1705 19.469 15.604 19.469 17.176C19.469 17.3221 19.5873 17.4403 19.7332 17.4403C19.8793 17.4403 19.9976 17.3221 19.9976 17.176Z" fill="#F5F5F5"/>
<path d="M20.2618 11.362C20.2618 11.5081 20.3801 11.6263 20.5261 11.6263C20.672 11.6263 20.7903 11.5081 20.7903 11.362C20.7903 11.051 20.5469 10.5485 20.4982 10.4509C20.4329 10.3206 20.2743 10.268 20.1436 10.3327C20.013 10.398 19.9601 10.5567 20.0254 10.6873C20.1208 10.8781 20.2618 11.2242 20.2618 11.362Z" fill="#F5F5F5"/>
<path d="M19.0592 17.2049C18.9296 17.1388 18.7704 17.1912 18.7045 17.3213C18.6761 17.3768 18.6321 17.4385 18.5949 17.4783C18.5831 17.3732 18.6111 17.1634 18.6644 16.9894C18.6999 16.8733 18.6518 16.7479 18.5478 16.6854C18.4441 16.6227 18.3106 16.639 18.2249 16.7249L17.6963 17.2534C17.5931 17.3567 17.5931 17.5239 17.6963 17.6271C17.7996 17.7304 17.9668 17.7304 18.07 17.6271L18.0834 17.6137C18.1063 17.7197 18.15 17.8166 18.2249 17.8914C18.324 17.9905 18.4437 18.0429 18.5683 18.0429C18.5924 18.0429 18.6167 18.0408 18.6409 18.0369C18.9403 17.9884 19.1266 17.6584 19.1767 17.5585C19.2418 17.4281 19.1891 17.2704 19.0592 17.2049Z" fill="#F5F5F5"/>
<path d="M18.9568 15.0783H17.0942C17.1108 15.0125 17.1278 14.9498 17.1451 14.8902C17.8879 14.7359 18.3293 14.4961 18.4591 14.1761C18.504 14.0652 18.5509 13.8408 18.3598 13.583C18.1875 13.3507 17.9443 13.2465 17.6917 13.2981C17.3162 13.3742 16.9816 13.7789 16.7415 14.4267C15.9955 14.5544 15.5178 14.8222 15.2156 15.0865C15.1083 14.0036 14.688 13.3602 14.6675 13.3296C14.5865 13.208 14.4224 13.1752 14.3011 13.2563C14.1796 13.3373 14.1468 13.5012 14.2278 13.6228C14.2325 13.63 14.712 14.3632 14.712 15.5904C14.712 16.7967 13.7501 17.7046 13.1263 17.7046C12.8296 17.7046 12.6997 17.3519 12.6426 17.0537C13.2534 16.6256 13.7923 16.1303 13.9113 15.6545C14.0724 15.0106 13.8696 14.5359 13.7355 14.2218C13.7292 14.2074 13.7226 14.1919 13.7159 14.1759C13.7216 14.1811 13.727 14.1865 13.7325 14.1916C13.8354 14.2949 14.0028 14.2949 14.106 14.1916C14.2093 14.0884 14.2093 13.9211 14.106 13.8179C13.9515 13.6634 13.6515 13.4205 13.3789 13.5346C13.2637 13.5823 13.1263 13.7026 13.1263 14.0048C13.1263 14.1414 13.1834 14.2748 13.2494 14.4297C13.3684 14.7081 13.5164 15.0548 13.3985 15.5265C13.3287 15.8057 12.9858 16.1444 12.5334 16.4806C12.4849 16.4226 12.4148 16.3836 12.3335 16.3836H12.3331C12.1873 16.3839 12.0692 16.5018 12.0692 16.6477C12.0692 16.6952 12.0712 16.7461 12.0744 16.7982C11.5088 17.1645 10.8688 17.5035 10.3741 17.7285C10.2413 17.7889 10.1826 17.9455 10.243 18.0784C10.2873 18.1757 10.3833 18.2333 10.4836 18.2333C10.5203 18.2333 10.5574 18.2258 10.5928 18.2096C10.7414 18.142 11.4467 17.8134 12.1712 17.3644C12.3046 17.8175 12.5874 18.2333 13.1263 18.2333C13.7603 18.2333 14.4795 17.7149 14.8945 16.9409C14.9446 17.0294 15.0022 17.1141 15.0709 17.1933C15.7361 17.9603 17.0354 17.9691 17.0904 17.9691C17.2327 17.9691 17.3493 17.8565 17.3545 17.7144C17.3595 17.5722 17.2511 17.4514 17.1093 17.4413C17.1073 17.4411 16.8967 17.4179 16.7795 17.2811C16.7088 17.1985 16.6805 17.0849 16.693 16.934C16.7201 16.6083 17.7706 16.3649 18.6965 16.3504C18.8069 16.3487 18.9046 16.2787 18.9416 16.1747L19.2059 15.4314C19.2346 15.3506 19.2223 15.2605 19.1727 15.1906C19.1233 15.1201 19.0426 15.0783 18.9568 15.0783ZM17.7968 13.8163C17.8018 13.8153 17.8085 13.8137 17.8169 13.8137C17.8422 13.8137 17.882 13.8261 17.9352 13.8978C17.9452 13.9113 17.9774 13.9572 17.9692 13.9774C17.9389 14.0522 17.7564 14.1758 17.3763 14.2878C17.5436 13.9616 17.7071 13.8344 17.7968 13.8163ZM16.2008 17.2904C15.9322 17.2031 15.6587 17.0648 15.4692 16.8457C15.2611 16.6049 15.1842 16.3004 15.2346 15.915C15.2423 15.8948 15.2595 15.8549 15.2897 15.803C15.6619 15.7689 16.6561 15.9156 16.725 16.2003C16.4183 16.3569 16.1924 16.5769 16.1663 16.8898C16.1533 17.0467 16.1693 17.1796 16.2008 17.2904Z" fill="#F5F5F5"/>
<path d="M21.834 11.2784L21.5697 10.4855C21.5272 10.358 21.3948 10.2819 21.2637 10.3108C21.132 10.3389 21.0425 10.4615 21.056 10.5955C21.2383 12.4191 21.5832 15.9755 21.5832 16.3833C21.5832 16.7495 20.9318 17.4706 19.8793 17.9968C19.7487 18.0621 19.6958 18.2208 19.7611 18.3514C19.8074 18.4441 19.9008 18.4975 19.9978 18.4975C20.0374 18.4975 20.0778 18.4885 20.1157 18.4696C21.0771 17.9888 22.1117 17.131 22.1117 16.3833C22.1117 15.9928 21.8416 13.1833 21.6869 11.6051C21.8124 11.5516 21.8778 11.41 21.834 11.2784Z" fill="#F5F5F5"/>
<path d="M24.0391 13.6629C24.0899 13.7138 24.1576 13.7404 24.2261 13.7404C24.2707 13.7404 24.3158 13.729 24.3567 13.7058C24.46 13.6469 24.5114 13.5261 24.4821 13.4108C24.4347 13.225 24.419 12.9927 24.4441 12.8977C24.5765 12.9018 24.6993 12.8076 24.7188 12.6711C24.7395 12.5266 24.6391 12.3927 24.4947 12.372C24.3199 12.3483 24.1665 12.3996 24.0593 12.5188C23.9899 12.5962 23.9486 12.6956 23.9261 12.8024L23.6201 12.4964C23.5168 12.3931 23.3496 12.3931 23.2464 12.4964C23.1431 12.5996 23.1431 12.7669 23.2464 12.87L24.0391 13.6629Z" fill="#F5F5F5"/>
<path d="M24.6337 13.9387L23.6426 14.6489C23.524 14.7339 23.4967 14.899 23.5817 15.0177C23.6333 15.0897 23.7145 15.1279 23.7968 15.1279C23.8501 15.1279 23.9039 15.1119 23.9505 15.0784L24.9415 14.3681C25.0601 14.2832 25.0874 14.1181 25.0024 13.9994C24.9173 13.8806 24.7519 13.853 24.6337 13.9387Z" fill="#F5F5F5"/>
<path d="M24.5459 14.9325C24.4628 15.0397 24.4746 15.1904 24.569 15.283C24.5803 15.3021 24.6318 15.4033 24.6225 15.6634C24.6174 15.8095 24.7314 15.9318 24.8772 15.937C24.8805 15.9372 24.8837 15.9372 24.8868 15.9372C25.0285 15.9372 25.1456 15.825 25.1508 15.6825C25.17 15.1431 24.9935 14.946 24.9167 14.8863C24.8018 14.7963 24.6354 14.8175 24.5459 14.9325Z" fill="#F5F5F5"/>
<path d="M26.8522 16.8788C26.9982 16.8788 27.1165 16.7606 27.1165 16.6145C27.1165 16.2246 27.0965 15.7893 27.0637 15.3364C27.3257 15.7658 27.5434 16.1617 27.683 16.4873C27.7258 16.5877 27.8234 16.6475 27.926 16.6475C27.9607 16.6475 27.9961 16.6409 28.03 16.6261C28.1641 16.5685 28.2263 16.4132 28.1688 16.2793C27.9268 15.7146 27.4747 14.9667 26.9597 14.1945C26.856 13.2245 26.7206 12.2741 26.6154 11.5922C26.6714 11.5979 26.7295 11.5842 26.7804 11.5512C26.8639 11.4977 26.903 11.4049 26.8974 11.3124C26.9042 11.3384 26.9115 11.3645 26.9266 11.3883C26.9284 11.3909 27.0982 11.6714 27.0229 12.0354C26.9933 12.1781 27.0852 12.318 27.2281 12.3477C27.2462 12.3513 27.2643 12.3531 27.282 12.3531C27.4047 12.3531 27.5146 12.2671 27.5406 12.1422C27.6599 11.5649 27.3843 11.123 27.3726 11.1044C27.2941 10.9816 27.1308 10.9454 27.0077 11.0234C26.9238 11.0768 26.8842 11.1697 26.8896 11.2623C26.8828 11.2362 26.8753 11.2099 26.8599 11.1859L26.4139 10.4922C26.3458 10.3864 26.2125 10.3435 26.0955 10.3889C25.9782 10.4349 25.9095 10.5569 25.9313 10.6808C25.935 10.7016 26.137 11.8613 26.316 13.2591C26.1133 12.9729 25.9107 12.6932 25.7143 12.4263C25.6823 12.0265 25.6503 11.6568 25.6226 11.3511C25.6372 11.3467 25.6515 11.3411 25.6656 11.3341C25.7962 11.2688 25.8491 11.1101 25.7838 10.9795L25.5195 10.4509C25.4625 10.3368 25.3323 10.28 25.2097 10.3151C25.0873 10.3508 25.0076 10.4684 25.0202 10.5954C25.0517 10.9108 25.0845 11.26 25.1167 11.6267C24.9495 11.4063 24.7949 11.2047 24.6626 11.0339C24.6884 11.0117 24.7105 10.9841 24.7267 10.9516C24.792 10.821 24.7391 10.6623 24.6085 10.597L24.0799 10.3327C23.9691 10.2775 23.8345 10.3064 23.7562 10.403C23.6782 10.4995 23.6779 10.6373 23.7554 10.7344C23.7697 10.7521 24.4203 11.5678 25.1987 12.6206C25.3337 14.3668 25.4236 16.1831 25.2966 16.5639C25.2734 16.6336 25.2329 16.7157 25.1949 16.7185C25.0351 16.7407 24.6539 16.3835 24.4624 16.0008C24.3521 15.7804 24.1934 15.7574 24.1085 15.7613C23.8244 15.7789 23.7136 16.0914 23.5122 16.6587C23.3678 17.0652 23.1885 17.5705 22.987 17.7772C22.8779 17.6439 22.7368 17.1965 22.6584 16.7367C22.6952 16.8384 22.7903 16.9119 22.9046 16.9119C23.0505 16.9119 23.1689 16.7937 23.1689 16.6476C23.1689 16.2535 22.8932 13.252 22.7393 11.607C22.8678 11.5554 22.9354 11.4116 22.891 11.2785L22.6267 10.4856C22.5843 10.3581 22.4538 10.283 22.3213 10.3106C22.1898 10.3385 22.1001 10.4606 22.1129 10.5942C22.2925 12.4795 22.6293 16.121 22.6398 16.6236C22.6391 16.6191 22.6382 16.6146 22.6375 16.6101C22.617 16.4656 22.4822 16.3665 22.3386 16.3859C22.194 16.4068 22.0938 16.5405 22.1144 16.685C22.1916 17.2252 22.3888 18.154 22.843 18.3052C22.8789 18.3174 22.9272 18.3282 22.9838 18.3282C23.0879 18.3282 23.2203 18.2913 23.3557 18.1558C23.6436 17.8681 23.8383 17.3194 24.0102 16.8355C24.0491 16.726 24.095 16.5965 24.1383 16.4855C24.3808 16.8396 24.8038 17.2804 25.2323 17.2458C25.383 17.235 25.6571 17.154 25.7981 16.7313C25.9386 16.3097 25.883 14.8394 25.7883 13.4318C26.011 13.7438 26.2338 14.0634 26.4465 14.379C26.5289 15.1704 26.5879 15.9633 26.5879 16.6146C26.5879 16.7606 26.7062 16.8788 26.8522 16.8788Z" fill="#F5F5F5"/>
<path d="M28.8577 15.4887C28.6705 14.0941 28.4097 12.4785 28.2445 11.4869C28.3191 11.5052 28.4004 11.4902 28.466 11.4399C28.5821 11.3514 28.6043 11.1855 28.5158 11.0696L28.0368 10.4419C27.9628 10.3454 27.8325 10.3113 27.7208 10.3601C27.6092 10.4089 27.5455 10.5276 27.5663 10.6476C27.571 10.6747 28.0423 13.3877 28.3338 15.5589C28.4451 16.3886 28.2826 17.1301 27.8986 17.542C27.6519 17.8065 27.325 17.9263 26.9293 17.9033C26.784 17.8956 26.658 18.005 26.6488 18.1506C26.6397 18.2961 26.7502 18.4216 26.896 18.4309C26.9407 18.4338 26.9846 18.435 27.0283 18.435C27.5266 18.435 27.9591 18.2523 28.2852 17.9024C28.7832 17.3681 28.9919 16.4882 28.8577 15.4887Z" fill="#F5F5F5"/>
<path d="M25.9505 17.2308C25.8533 17.3364 25.8608 17.5026 25.9635 17.6022C25.9778 17.6161 25.995 17.6435 25.9951 17.6569C25.9953 17.6644 25.9846 17.6866 25.9551 17.716C25.8519 17.8193 25.8519 17.9865 25.9551 18.0897C26.0067 18.1413 26.0743 18.1671 26.142 18.1671C26.2096 18.1671 26.2772 18.1413 26.3288 18.0897C26.4964 17.9222 26.5272 17.7522 26.5234 17.6389C26.5153 17.3949 26.3492 17.2375 26.316 17.2084C26.2082 17.1144 26.0475 17.1257 25.9505 17.2308Z" fill="#F5F5F5"/>
<path d="M25.0188 23.0264H24.7545H23.1688V22.7622C23.1688 22.6161 23.0505 22.4979 22.9045 22.4979C22.7586 22.4979 22.6403 22.6161 22.6403 22.7622V23.0264H8.63354C9.16207 23.555 10.2192 23.8193 11.012 23.8193C11.5806 23.8193 18.6734 23.8193 22.6402 23.8193V24.3478C22.6402 24.4939 22.7585 24.6121 22.9045 24.6121H25.0187C25.4559 24.6121 25.8115 24.2565 25.8115 23.8192C25.8115 23.3821 25.4559 23.0264 25.0188 23.0264ZM25.0188 24.0836H23.1688V23.8193C24.4424 23.8193 25.283 23.8193 25.283 23.8193L25.2356 23.677C25.2631 23.7187 25.283 23.7657 25.283 23.8193C25.283 23.9651 25.1644 24.0836 25.0188 24.0836Z" fill="#F5F5F5"/>
</g>
<defs>
<clipPath id="clip0_1689_3685">
<rect x="0.857178" y="0.857178" width="32.5714" height="32.5714" rx="16.2857" fill="white"/>
</clipPath>
</defs>
</svg>
