<svg width="34" height="34" viewBox="0 0 34 34" fill="none" xmlns="http://www.w3.org/2000/svg">
<g clip-path="url(#clip0_1689_3717)">
<path d="M26.3036 0.857178H7.98218C4.04714 0.857178 0.857178 4.04714 0.857178 7.98218V26.3036C0.857178 30.2386 4.04714 33.4286 7.98218 33.4286H26.3036C30.2386 33.4286 33.4286 30.2386 33.4286 26.3036V7.98218C33.4286 4.04714 30.2386 0.857178 26.3036 0.857178Z" fill="#C8414B"/>
<path d="M33.4286 7.6405H0.857178V26.6452H33.4286V7.6405Z" fill="#FFD250"/>
<path d="M15.0494 17.1691L15.5746 15.0275C15.6229 14.8303 15.4573 14.6432 15.2344 14.6432H14.8645C14.6416 14.6432 14.4759 14.8303 14.5243 15.0275L15.0494 17.1691Z" fill="#C8414B"/>
<path d="M15.6685 16.0461H14.4297V20.8173H15.6685V16.0461Z" fill="#F5F5F5"/>
<path d="M15.9787 15.4851H14.1205V16.0464H15.9787V15.4851Z" fill="#FAB446"/>
<path d="M15.9781 17.1689H12.8812V17.7302H15.9781V17.1689Z" fill="#C8414B"/>
<path d="M15.9785 19.4144L14.1204 18.853V18.2917L15.9785 18.853V19.4144Z" fill="#C8414B"/>
<path d="M5.75864 17.1691L6.28379 15.0275C6.33214 14.8303 6.16654 14.6432 5.94363 14.6432H5.57371C5.3508 14.6432 5.18514 14.8303 5.23355 15.0275L5.75864 17.1691Z" fill="#C8414B"/>
<path d="M7.9265 15.4851C7.58443 15.4851 7.30713 15.7364 7.30713 16.0465V19.695C7.30713 20.3771 8.00951 21.6596 10.4041 21.6596C12.7987 21.6596 13.501 20.377 13.501 19.695V16.0465C13.501 15.7365 13.2237 15.4851 12.8817 15.4851H7.9265Z" fill="#F5F5F5"/>
<path d="M10.404 18.2917H7.30701V16.0748C7.30701 15.7491 7.57101 15.4851 7.89666 15.4851H10.404V18.2917Z" fill="#C8414B"/>
<path d="M10.4039 18.2917H13.5009V19.6243C13.5009 20.4383 12.8409 21.0984 12.0268 21.0984H11.878C11.0639 21.0984 10.4039 20.4384 10.4039 19.6243V18.2917Z" fill="#C8414B"/>
<path d="M7.30701 18.2917H10.404V19.6243C10.404 20.4383 9.74401 21.0984 8.92985 21.0984H8.78112C7.96702 21.0984 7.30701 20.4384 7.30701 19.6243V18.2917Z" fill="#FAB446"/>
<path d="M9.78453 20.8113V18.2917H9.16516V21.0701C9.39545 21.0276 9.60367 20.9352 9.78453 20.8113Z" fill="#C8414B"/>
<path d="M8.54576 21.0701V18.2917H7.92639V20.8113C8.10725 20.9352 8.3154 21.0276 8.54576 21.0701Z" fill="#C8414B"/>
<path d="M9.78437 17.1689H7.92615V17.7302H9.78437V17.1689Z" fill="#FFB441"/>
<path d="M9.78437 16.0461H7.92615V16.6075H9.78437V16.0461Z" fill="#FAB446"/>
<path d="M9.47476 16.3801H8.23596V17.397H9.47476V16.3801Z" fill="#FAB446"/>
<path d="M6.37796 16.0461H5.13916V20.8173H6.37796V16.0461Z" fill="#F5F5F5"/>
<path d="M6.68757 20.5369H4.82935V21.0981H6.68757V20.5369Z" fill="#FAB446"/>
<path d="M6.68757 15.4851H4.82935V16.0464H6.68757V15.4851Z" fill="#FAB446"/>
<path d="M6.99706 21.0986H4.51953V21.6599H6.99706V21.0986Z" fill="#5064AA"/>
<path d="M16.2879 20.5369H14.4297V21.0981H16.2879V20.5369Z" fill="#FAB446"/>
<path d="M16.2882 21.0986H13.8107V21.6599H16.2882V21.0986Z" fill="#5064AA"/>
<path d="M12.2622 14.924H8.54578V15.4852H12.2622V14.924Z" fill="#FAB446"/>
<path d="M10.7136 13.24H10.0942V14.924H10.7136V13.24Z" fill="#FFB441"/>
<path d="M9.78464 14.0819C9.27234 14.0819 8.85559 13.7042 8.85559 13.2399C8.85559 12.7756 9.27234 12.3979 9.78464 12.3979C10.2969 12.3979 10.7137 12.7756 10.7137 13.2399C10.7137 13.7042 10.2969 14.0819 9.78464 14.0819ZM9.78464 12.9592C9.61377 12.9592 9.47496 13.0851 9.47496 13.2399C9.47496 13.3947 9.61377 13.5206 9.78464 13.5206C9.95551 13.5206 10.0943 13.3947 10.0943 13.2399C10.0943 13.0851 9.95551 12.9592 9.78464 12.9592Z" fill="#F5F5F5"/>
<path d="M11.0234 14.0819C10.5111 14.0819 10.0944 13.7042 10.0944 13.2399C10.0944 12.7756 10.5111 12.3979 11.0234 12.3979C11.5357 12.3979 11.9525 12.7756 11.9525 13.2399C11.9525 13.7042 11.5358 14.0819 11.0234 14.0819ZM11.0234 12.9592C10.8525 12.9592 10.7137 13.0851 10.7137 13.2399C10.7137 13.3947 10.8525 13.5206 11.0234 13.5206C11.1943 13.5206 11.3331 13.3947 11.3331 13.2399C11.3331 13.0851 11.1943 12.9592 11.0234 12.9592Z" fill="#F5F5F5"/>
<path d="M12.2622 14.6433C11.7499 14.6433 11.3331 14.2656 11.3331 13.8013C11.3331 13.337 11.7499 12.9594 12.2622 12.9594C12.7745 12.9594 13.1913 13.337 13.1913 13.8013C13.1913 14.2656 12.7745 14.6433 12.2622 14.6433ZM12.2622 13.5206C12.0913 13.5206 11.9525 13.6465 11.9525 13.8013C11.9525 13.9562 12.0913 14.082 12.2622 14.082C12.4331 14.082 12.5719 13.9562 12.5719 13.8013C12.5719 13.6464 12.4331 13.5206 12.2622 13.5206Z" fill="#F5F5F5"/>
<path d="M8.54587 14.6433C8.03357 14.6433 7.61682 14.2656 7.61682 13.8013C7.61682 13.337 8.03357 12.9594 8.54587 12.9594C9.05817 12.9594 9.47492 13.337 9.47492 13.8013C9.47492 14.2656 9.05817 14.6433 8.54587 14.6433ZM8.54587 13.5206C8.375 13.5206 8.23619 13.6465 8.23619 13.8013C8.23619 13.9562 8.375 14.082 8.54587 14.082C8.71674 14.082 8.85555 13.9562 8.85555 13.8013C8.85555 13.6464 8.71674 13.5206 8.54587 13.5206Z" fill="#F5F5F5"/>
<path d="M12.2621 19.4144V19.6951C12.2621 19.8498 12.1232 19.9757 11.9524 19.9757C11.7817 19.9757 11.6427 19.8498 11.6427 19.6951V19.4144H12.2621ZM12.8815 18.853H11.0233V19.695C11.0233 20.1593 11.4401 20.5369 11.9524 20.5369C12.4647 20.5369 12.8815 20.1592 12.8815 19.695V18.853Z" fill="#FAB446"/>
<path d="M11.9821 17.7304H11.9227C11.597 17.7304 11.333 17.4664 11.333 17.1407V16.636C11.333 16.3104 11.597 16.0464 11.9227 16.0464H11.9821C12.3078 16.0464 12.5718 16.3104 12.5718 16.636V17.1407C12.5718 17.4664 12.3078 17.7304 11.9821 17.7304Z" fill="#FFA0D2"/>
<path d="M10.404 19.1337C10.9171 19.1337 11.3331 18.7568 11.3331 18.2918C11.3331 17.8268 10.9171 17.4498 10.404 17.4498C9.89093 17.4498 9.47498 17.8268 9.47498 18.2918C9.47498 18.7568 9.89093 19.1337 10.404 19.1337Z" fill="#5064AA"/>
<path d="M10.7136 12.1172H10.0942V13.8012H10.7136V12.1172Z" fill="#FAB446"/>
<path d="M8.54576 14.9238L7.92639 14.3625L8.28919 14.0337C8.85003 13.5254 9.61075 13.2399 10.4039 13.2399C11.1971 13.2399 11.9578 13.5254 12.5186 14.0337L12.8814 14.3625L12.2621 14.9238H8.54576Z" fill="#C8414B"/>
<path d="M10.404 14.6429C10.5751 14.6429 10.7137 14.5172 10.7137 14.3622C10.7137 14.2072 10.5751 14.0815 10.404 14.0815C10.233 14.0815 10.0944 14.2072 10.0944 14.3622C10.0944 14.5172 10.233 14.6429 10.404 14.6429Z" fill="#FFD250"/>
<path d="M9.1654 14.6429C9.33643 14.6429 9.47508 14.5172 9.47508 14.3622C9.47508 14.2072 9.33643 14.0815 9.1654 14.0815C8.99436 14.0815 8.85571 14.2072 8.85571 14.3622C8.85571 14.5172 8.99436 14.6429 9.1654 14.6429Z" fill="#FFD250"/>
<path d="M11.6426 14.6429C11.8136 14.6429 11.9523 14.5172 11.9523 14.3622C11.9523 14.2072 11.8136 14.0815 11.6426 14.0815C11.4715 14.0815 11.3329 14.2072 11.3329 14.3622C11.3329 14.5172 11.4715 14.6429 11.6426 14.6429Z" fill="#FFD250"/>
<path d="M7.92624 17.1689H4.82935V17.7302H7.92624V17.1689Z" fill="#C8414B"/>
<path d="M4.82947 19.4144L6.68763 18.853V18.2917L4.82947 18.853V19.4144Z" fill="#C8414B"/>
</g>
<defs>
<clipPath id="clip0_1689_3717">
<rect x="0.857178" y="0.857178" width="32.5714" height="32.5714" rx="16.2857" fill="white"/>
</clipPath>
</defs>
</svg>
