<svg width="34" height="34" viewBox="0 0 34 34" fill="none" xmlns="http://www.w3.org/2000/svg">
<g clip-path="url(#clip0_1689_2930)">
<path d="M33.4286 8.37341H0.857178V10.8786H33.4286V8.37341Z" fill="#F5F5F5"/>
<path d="M31.7277 3.36267H2.55796C1.94037 4.08713 1.4651 4.9366 1.17603 5.86819H33.1096C32.8206 4.9366 32.3453 4.08713 31.7277 3.36267Z" fill="#F5F5F5"/>
<path d="M33.4286 13.3844H0.857178V15.8896H33.4286V13.3844Z" fill="#F5F5F5"/>
<path d="M33.4286 18.3955H0.857178V20.9007H33.4286V18.3955Z" fill="#F5F5F5"/>
<path d="M33.4286 23.4065H0.857178V25.9117H33.4286V23.4065Z" fill="#F5F5F5"/>
<path d="M33.1096 28.4176H1.17603C1.46503 29.3492 1.94037 30.1986 2.55796 30.9231H31.7276C32.3453 30.1986 32.8206 29.3492 33.1096 28.4176Z" fill="#F5F5F5"/>
<path d="M26.3037 0.857178H7.98227C5.8099 0.857178 3.86497 1.82968 2.55811 3.3627H31.7278C30.421 1.82968 28.4761 0.857178 26.3037 0.857178Z" fill="#FF4B55"/>
<path d="M33.4286 10.8793H0.857178V13.3845H33.4286V10.8793Z" fill="#FF4B55"/>
<path d="M33.4286 7.98213C33.4286 7.24602 33.317 6.53607 33.1097 5.86816H1.17609C0.968824 6.53607 0.857178 7.24602 0.857178 7.98213V8.37362H33.4286V7.98213Z" fill="#FF4B55"/>
<path d="M33.4286 15.8903H0.857178V18.3955H33.4286V15.8903Z" fill="#FF4B55"/>
<path d="M33.4286 26.3036V25.9121H0.857178V26.3036C0.857178 27.0397 0.968824 27.7497 1.17609 28.4176H33.1097C33.317 27.7497 33.4286 27.0397 33.4286 26.3036Z" fill="#FF4B55"/>
<path d="M31.7279 30.9231H2.55811C3.86497 32.4561 5.8099 33.4286 7.98227 33.4286H26.3037C28.4761 33.4286 30.421 32.4561 31.7279 30.9231Z" fill="#FF4B55"/>
<path d="M33.4286 20.9014H0.857178V23.4066H33.4286V20.9014Z" fill="#FF4B55"/>
<path d="M18.3956 0.857178H7.98218C4.04714 0.857178 0.857178 4.04714 0.857178 7.98218V18.3956H18.3956V0.857178Z" fill="#41479B"/>
<path d="M2.74943 3.59668C2.73276 3.64941 2.79275 3.69305 2.83779 3.66086L3.18533 3.41251L3.53286 3.66086C3.57784 3.69305 3.63789 3.64941 3.62123 3.59668L3.4924 3.18941L3.83606 2.93564C3.88052 2.90275 3.85762 2.8322 3.80228 2.83176L3.37516 2.82845L3.30225 2.60986C3.11917 2.76948 2.94454 2.93844 2.77869 3.11574L2.87838 3.18941L2.74943 3.59668Z" fill="#F5F5F5"/>
<path d="M3.23989 5.80364L3.37501 6.20888L3.80213 6.21219C3.85741 6.21263 3.88038 6.28318 3.83591 6.31607L3.49226 6.56984L3.62108 6.97711C3.63775 7.02984 3.57776 7.07342 3.53272 7.0413L3.18518 6.79287L2.83765 7.0413C2.79267 7.07349 2.73262 7.02984 2.74929 6.97711L2.87811 6.56984L2.53445 6.31607C2.48999 6.28325 2.51289 6.21263 2.56817 6.21219L2.99529 6.20888L3.13041 5.80364C3.14816 5.75116 3.2224 5.75116 3.23989 5.80364Z" fill="#F5F5F5"/>
<path d="M3.23989 9.55267L3.37501 9.9579L3.80213 9.96121C3.85741 9.96166 3.88038 10.0322 3.83591 10.0651L3.49226 10.3189L3.62108 10.7261C3.63775 10.7789 3.57776 10.8224 3.53272 10.7903L3.18518 10.542L2.83765 10.7903C2.79267 10.8224 2.73262 10.7789 2.74929 10.7261L2.87811 10.3189L2.53445 10.0651C2.48999 10.0323 2.51289 9.96166 2.56817 9.96121L2.99529 9.9579L3.13041 9.55267C3.14816 9.50018 3.2224 9.50018 3.23989 9.55267Z" fill="#F5F5F5"/>
<path d="M3.23989 12.9972L3.37501 13.4025L3.80213 13.4058C3.85741 13.4062 3.88038 13.4768 3.83591 13.5097L3.49226 13.7634L3.62108 14.1707C3.63775 14.2234 3.57776 14.267 3.53272 14.2349L3.18518 13.9865L2.83765 14.2349C2.79267 14.267 2.73262 14.2234 2.74929 14.1707L2.87811 13.7634L2.53445 13.5097C2.48999 13.4769 2.51289 13.4062 2.56817 13.4058L2.99529 13.4025L3.13041 12.9972C3.14816 12.9448 3.2224 12.9448 3.23989 12.9972Z" fill="#F5F5F5"/>
<path d="M3.23989 16.1318L3.37501 16.537L3.80213 16.5403C3.85741 16.5408 3.88038 16.6113 3.83591 16.6442L3.49226 16.898L3.62108 17.3052C3.63775 17.358 3.57776 17.4015 3.53272 17.3694L3.18518 17.1211L2.83765 17.3694C2.79267 17.4015 2.73262 17.358 2.74929 17.3052L2.87811 16.898L2.53445 16.6442C2.48999 16.6114 2.51289 16.5408 2.56817 16.5403L2.99529 16.537L3.13041 16.1318C3.14816 16.0793 3.2224 16.0793 3.23989 16.1318Z" fill="#F5F5F5"/>
<path d="M4.88521 4.02398L5.02033 4.42922L5.44745 4.43252C5.50273 4.43297 5.5257 4.50352 5.48123 4.53635L5.13757 4.79011L5.2664 5.19738C5.28306 5.25012 5.22307 5.29376 5.17803 5.26157L4.83063 5.01315L4.48309 5.26157C4.43812 5.29376 4.37806 5.25012 4.39473 5.19738L4.52355 4.79011L4.17996 4.53635C4.13549 4.50352 4.1584 4.43291 4.21368 4.43252L4.6408 4.42922L4.77592 4.02398C4.79348 3.9715 4.86772 3.9715 4.88521 4.02398Z" fill="#F5F5F5"/>
<path d="M4.88509 7.77313L5.02021 8.17836L5.44733 8.18167C5.50261 8.18212 5.52558 8.25267 5.48111 8.28555L5.13746 8.53932L5.26628 8.94659C5.28295 8.99933 5.22296 9.04297 5.17792 9.01078L4.83038 8.76236L4.48285 9.01078C4.43787 9.04297 4.37782 8.99933 4.39449 8.94659L4.52331 8.53932L4.17972 8.28555C4.13525 8.25273 4.15815 8.18212 4.21343 8.18167L4.64055 8.17836L4.77567 7.77313C4.79336 7.72064 4.8676 7.72064 4.88509 7.77313Z" fill="#F5F5F5"/>
<path d="M4.88509 11.335L5.02021 11.7402L5.44733 11.7435C5.50261 11.744 5.52558 11.8145 5.48111 11.8474L5.13746 12.1012L5.26628 12.5084C5.28295 12.5612 5.22296 12.6047 5.17792 12.5726L4.83038 12.3242L4.48285 12.5726C4.43787 12.6048 4.37782 12.5612 4.39449 12.5084L4.52331 12.1012L4.17972 11.8474C4.13525 11.8146 4.15815 11.744 4.21343 11.7435L4.64055 11.7402L4.77567 11.335C4.79336 11.2825 4.8676 11.2825 4.88509 11.335Z" fill="#F5F5F5"/>
<path d="M4.88509 14.5337L5.02021 14.939L5.44733 14.9423C5.50261 14.9427 5.52558 15.0133 5.48111 15.0462L5.13746 15.2999L5.26628 15.7072C5.28295 15.7599 5.22296 15.8036 5.17792 15.7714L4.83038 15.523L4.48285 15.7714C4.43787 15.8036 4.37782 15.7599 4.39449 15.7072L4.52331 15.2999L4.17972 15.0462C4.13525 15.0133 4.15815 14.9427 4.21343 14.9423L4.64055 14.939L4.77567 14.5337C4.79336 14.4813 4.8676 14.4813 4.88509 14.5337Z" fill="#F5F5F5"/>
<path d="M6.5306 2.42323L6.66572 2.82846L7.09284 2.83177C7.14812 2.83221 7.17109 2.90276 7.12662 2.93559L6.78297 3.18935L6.91179 3.59662C6.92845 3.64936 6.86847 3.69294 6.82342 3.66081L6.47589 3.41239L6.12836 3.66081C6.08338 3.693 6.02333 3.64936 6.03999 3.59662L6.16882 3.18935L5.82523 2.93559C5.78076 2.90276 5.80366 2.83215 5.85894 2.83177L6.28606 2.82846L6.42118 2.42323C6.43887 2.37081 6.51311 2.37081 6.5306 2.42323Z" fill="#F5F5F5"/>
<path d="M6.5306 5.80364L6.66572 6.20888L7.09284 6.21219C7.14812 6.21263 7.17109 6.28318 7.12662 6.31607L6.78297 6.56984L6.91179 6.97711C6.92845 7.02984 6.86847 7.07342 6.82342 7.0413L6.47589 6.79287L6.12836 7.0413C6.08338 7.07349 6.02333 7.02984 6.03999 6.97711L6.16882 6.56984L5.82523 6.31607C5.78076 6.28325 5.80366 6.21263 5.85894 6.21219L6.28606 6.20888L6.42118 5.80364C6.43887 5.75116 6.51311 5.75116 6.5306 5.80364Z" fill="#F5F5F5"/>
<path d="M6.5306 9.55267L6.66572 9.9579L7.09284 9.96121C7.14812 9.96166 7.17109 10.0322 7.12662 10.0651L6.78297 10.3189L6.91179 10.7261C6.92845 10.7789 6.86847 10.8224 6.82342 10.7903L6.47589 10.542L6.12836 10.7903C6.08338 10.8224 6.02333 10.7789 6.03999 10.7261L6.16882 10.3189L5.82523 10.0651C5.78076 10.0323 5.80366 9.96166 5.85894 9.96121L6.28606 9.9579L6.42118 9.55267C6.43887 9.50018 6.51311 9.50018 6.5306 9.55267Z" fill="#F5F5F5"/>
<path d="M6.5306 12.9972L6.66572 13.4025L7.09284 13.4058C7.14812 13.4062 7.17109 13.4768 7.12662 13.5097L6.78297 13.7634L6.91179 14.1707C6.92845 14.2234 6.86847 14.267 6.82342 14.2349L6.47589 13.9865L6.12836 14.2349C6.08338 14.267 6.02333 14.2234 6.03999 14.1707L6.16882 13.7634L5.82523 13.5097C5.78076 13.4769 5.80366 13.4062 5.85894 13.4058L6.28606 13.4025L6.42118 12.9972C6.43887 12.9448 6.51311 12.9448 6.5306 12.9972Z" fill="#F5F5F5"/>
<path d="M6.5306 16.1318L6.66572 16.537L7.09284 16.5403C7.14812 16.5408 7.17109 16.6113 7.12662 16.6442L6.78297 16.898L6.91179 17.3052C6.92845 17.358 6.86847 17.4015 6.82342 17.3694L6.47589 17.1211L6.12836 17.3694C6.08338 17.4015 6.02333 17.358 6.03999 17.3052L6.16882 16.898L5.82523 16.6442C5.78076 16.6114 5.80366 16.5408 5.85894 16.5403L6.28606 16.537L6.42118 16.1318C6.43887 16.0793 6.51311 16.0793 6.5306 16.1318Z" fill="#F5F5F5"/>
<path d="M8.17568 4.02398L8.3108 4.42922L8.73792 4.43252C8.7932 4.43297 8.81617 4.50352 8.77164 4.53635L8.42805 4.79011L8.55687 5.19738C8.57354 5.25012 8.51355 5.29376 8.46851 5.26157L8.12097 5.01315L7.77344 5.26157C7.72846 5.29376 7.66841 5.25012 7.68507 5.19738L7.8139 4.79011L7.47024 4.53635C7.42577 4.50352 7.44868 4.43291 7.50402 4.43252L7.93114 4.42922L8.06626 4.02398C8.08401 3.9715 8.15819 3.9715 8.17568 4.02398Z" fill="#F5F5F5"/>
<path d="M8.17568 7.77313L8.3108 8.17836L8.73792 8.18167C8.7932 8.18212 8.81617 8.25267 8.77164 8.28555L8.42805 8.53932L8.55687 8.94659C8.57354 8.99933 8.51355 9.04297 8.46851 9.01078L8.12097 8.76236L7.77344 9.01078C7.72846 9.04297 7.66841 8.99933 7.68507 8.94659L7.8139 8.53932L7.47024 8.28555C7.42577 8.25273 7.44868 8.18212 7.50402 8.18167L7.93114 8.17836L8.06626 7.77313C8.08401 7.72064 8.15819 7.72064 8.17568 7.77313Z" fill="#F5F5F5"/>
<path d="M8.17568 11.335L8.3108 11.7402L8.73792 11.7435C8.7932 11.744 8.81617 11.8145 8.77164 11.8474L8.42805 12.1012L8.55687 12.5084C8.57354 12.5612 8.51355 12.6047 8.46851 12.5726L8.12097 12.3242L7.77344 12.5726C7.72846 12.6048 7.66841 12.5612 7.68507 12.5084L7.8139 12.1012L7.47024 11.8474C7.42577 11.8146 7.44868 11.744 7.50402 11.7435L7.93114 11.7402L8.06626 11.335C8.08401 11.2825 8.15819 11.2825 8.17568 11.335Z" fill="#F5F5F5"/>
<path d="M8.17568 14.5337L8.3108 14.939L8.73792 14.9423C8.7932 14.9427 8.81617 15.0133 8.77164 15.0462L8.42805 15.2999L8.55687 15.7072C8.57354 15.7599 8.51355 15.8036 8.46851 15.7714L8.12097 15.523L7.77344 15.7714C7.72846 15.8036 7.66841 15.7599 7.68507 15.7072L7.8139 15.2999L7.47024 15.0462C7.42577 15.0133 7.44868 14.9427 7.50402 14.9423L7.93114 14.939L8.06626 14.5337C8.08401 14.4813 8.15819 14.4813 8.17568 14.5337Z" fill="#F5F5F5"/>
<path d="M9.82112 2.42323L9.95625 2.82846L10.3834 2.83177C10.4386 2.83221 10.4616 2.90276 10.4171 2.93559L10.0735 3.18935L10.2023 3.59662C10.219 3.64936 10.159 3.69294 10.1139 3.66081L9.76641 3.41239L9.41888 3.66081C9.3739 3.693 9.31385 3.64936 9.33052 3.59662L9.45934 3.18935L9.11575 2.93559C9.07128 2.90276 9.09418 2.83215 9.14953 2.83177L9.57665 2.82846L9.71177 2.42323C9.72945 2.37081 9.80363 2.37081 9.82112 2.42323Z" fill="#F5F5F5"/>
<path d="M9.82106 5.80365L9.95618 6.20889L10.3833 6.2122C10.4386 6.21264 10.4615 6.28319 10.417 6.31608L10.0734 6.56985L10.2023 6.97705C10.219 7.02979 10.159 7.07337 10.1139 7.04124L9.76641 6.79282L9.41888 7.04124C9.3739 7.07343 9.31385 7.02979 9.33052 6.97705L9.45934 6.56978L9.11575 6.31602C9.07128 6.28319 9.09418 6.21258 9.14953 6.21213L9.57665 6.20882L9.71177 5.80359C9.72939 5.75117 9.80357 5.75117 9.82106 5.80365Z" fill="#F5F5F5"/>
<path d="M9.82112 9.55267L9.95625 9.9579L10.3834 9.96121C10.4386 9.96166 10.4616 10.0322 10.4171 10.0651L10.0735 10.3189L10.2023 10.7261C10.219 10.7789 10.159 10.8224 10.1139 10.7903L9.76641 10.542L9.41888 10.7903C9.3739 10.8224 9.31385 10.7789 9.33052 10.7261L9.45934 10.3189L9.11575 10.0651C9.07128 10.0323 9.09418 9.96166 9.14953 9.96121L9.57665 9.9579L9.71177 9.55267C9.72945 9.50018 9.80363 9.50018 9.82112 9.55267Z" fill="#F5F5F5"/>
<path d="M9.82112 12.9972L9.95625 13.4025L10.3834 13.4058C10.4386 13.4062 10.4616 13.4768 10.4171 13.5097L10.0735 13.7634L10.2023 14.1707C10.219 14.2234 10.159 14.267 10.1139 14.2349L9.76641 13.9865L9.41888 14.2349C9.3739 14.267 9.31385 14.2234 9.33052 14.1707L9.45934 13.7634L9.11575 13.5097C9.07128 13.4769 9.09418 13.4062 9.14953 13.4058L9.57665 13.4025L9.71177 12.9972C9.72945 12.9448 9.80363 12.9448 9.82112 12.9972Z" fill="#F5F5F5"/>
<path d="M9.82112 16.1318L9.95625 16.537L10.3834 16.5403C10.4386 16.5408 10.4616 16.6113 10.4171 16.6442L10.0735 16.898L10.2023 17.3052C10.219 17.358 10.159 17.4015 10.1139 17.3694L9.76641 17.1211L9.41888 17.3694C9.3739 17.4015 9.31385 17.358 9.33052 17.3052L9.45934 16.898L9.11575 16.6442C9.07128 16.6114 9.09418 16.5408 9.14953 16.5403L9.57665 16.537L9.71177 16.1318C9.72945 16.0793 9.80363 16.0793 9.82112 16.1318Z" fill="#F5F5F5"/>
<path d="M11.4665 4.02398L11.6016 4.42922L12.0287 4.43252C12.084 4.43297 12.1069 4.50352 12.0624 4.53635L11.7188 4.79011L11.8476 5.19738C11.8642 5.25012 11.8042 5.29376 11.7592 5.26157L11.4117 5.01315L11.0641 5.26157C11.0192 5.29376 10.9591 5.25012 10.9758 5.19738L11.1046 4.79011L10.761 4.53635C10.7165 4.50352 10.7395 4.43291 10.7947 4.43252L11.2219 4.42922L11.357 4.02398C11.3748 3.9715 11.449 3.9715 11.4665 4.02398Z" fill="#F5F5F5"/>
<path d="M11.4665 7.77313L11.6016 8.17836L12.0287 8.18167C12.084 8.18212 12.1069 8.25267 12.0624 8.28555L11.7188 8.53932L11.8476 8.94659C11.8642 8.99933 11.8042 9.04297 11.7592 9.01078L11.4117 8.76236L11.0641 9.01078C11.0192 9.04297 10.9591 8.99933 10.9758 8.94659L11.1046 8.53932L10.761 8.28555C10.7165 8.25273 10.7395 8.18212 10.7947 8.18167L11.2219 8.17836L11.357 7.77313C11.3748 7.72064 11.449 7.72064 11.4665 7.77313Z" fill="#F5F5F5"/>
<path d="M11.4665 11.335L11.6016 11.7402L12.0287 11.7435C12.084 11.744 12.1069 11.8145 12.0624 11.8474L11.7188 12.1012L11.8476 12.5084C11.8642 12.5612 11.8042 12.6047 11.7592 12.5726L11.4117 12.3242L11.0641 12.5726C11.0192 12.6048 10.9591 12.5612 10.9758 12.5084L11.1046 12.1012L10.761 11.8474C10.7165 11.8146 10.7395 11.744 10.7947 11.7435L11.2219 11.7402L11.357 11.335C11.3748 11.2825 11.449 11.2825 11.4665 11.335Z" fill="#F5F5F5"/>
<path d="M11.4665 14.5337L11.6016 14.939L12.0287 14.9423C12.084 14.9427 12.1069 15.0133 12.0624 15.0462L11.7188 15.2999L11.8476 15.7072C11.8642 15.7599 11.8042 15.8036 11.7592 15.7714L11.4117 15.523L11.0641 15.7714C11.0192 15.8036 10.9591 15.7599 10.9758 15.7072L11.1046 15.2999L10.761 15.0462C10.7165 15.0133 10.7395 14.9427 10.7947 14.9423L11.2219 14.939L11.357 14.5337C11.3748 14.4813 11.449 14.4813 11.4665 14.5337Z" fill="#F5F5F5"/>
<path d="M13.1118 2.42323L13.2469 2.82846L13.674 2.83177C13.7293 2.83221 13.7523 2.90276 13.7077 2.93559L13.3641 3.18935L13.4929 3.59662C13.5096 3.64936 13.4495 3.69294 13.4045 3.66081L13.057 3.41239L12.7095 3.66081C12.6645 3.693 12.6044 3.64936 12.6211 3.59662L12.7499 3.18935L12.4063 2.93559C12.3618 2.90276 12.3847 2.83215 12.4401 2.83177L12.8672 2.82846L13.0023 2.42323C13.0201 2.37081 13.0943 2.37081 13.1118 2.42323Z" fill="#F5F5F5"/>
<path d="M13.1118 5.80364L13.2469 6.20888L13.674 6.21219C13.7293 6.21263 13.7523 6.28318 13.7077 6.31607L13.3641 6.56984L13.4929 6.97711C13.5096 7.02984 13.4495 7.07342 13.4045 7.0413L13.057 6.79287L12.7095 7.0413C12.6645 7.07349 12.6044 7.02984 12.6211 6.97711L12.7499 6.56984L12.4063 6.31607C12.3618 6.28325 12.3847 6.21263 12.4401 6.21219L12.8672 6.20888L13.0023 5.80364C13.0201 5.75116 13.0943 5.75116 13.1118 5.80364Z" fill="#F5F5F5"/>
<path d="M13.1118 9.55267L13.2469 9.9579L13.674 9.96121C13.7293 9.96166 13.7523 10.0322 13.7077 10.0651L13.3641 10.3189L13.4929 10.7261C13.5096 10.7789 13.4495 10.8224 13.4045 10.7903L13.057 10.542L12.7095 10.7903C12.6645 10.8224 12.6044 10.7789 12.6211 10.7261L12.7499 10.3189L12.4063 10.0651C12.3618 10.0323 12.3847 9.96166 12.4401 9.96121L12.8672 9.9579L13.0023 9.55267C13.0201 9.50018 13.0943 9.50018 13.1118 9.55267Z" fill="#F5F5F5"/>
<path d="M13.1118 12.9972L13.2469 13.4025L13.674 13.4058C13.7293 13.4062 13.7523 13.4768 13.7077 13.5097L13.3641 13.7634L13.4929 14.1707C13.5096 14.2234 13.4495 14.267 13.4045 14.2349L13.057 13.9865L12.7095 14.2349C12.6645 14.267 12.6044 14.2234 12.6211 14.1707L12.7499 13.7634L12.4063 13.5097C12.3618 13.4769 12.3847 13.4062 12.4401 13.4058L12.8672 13.4025L13.0023 12.9972C13.0201 12.9448 13.0943 12.9448 13.1118 12.9972Z" fill="#F5F5F5"/>
<path d="M13.1118 16.1318L13.2469 16.537L13.674 16.5403C13.7293 16.5408 13.7523 16.6113 13.7077 16.6442L13.3641 16.898L13.4929 17.3052C13.5096 17.358 13.4495 17.4015 13.4045 17.3694L13.057 17.1211L12.7095 17.3694C12.6645 17.4015 12.6044 17.358 12.6211 17.3052L12.7499 16.898L12.4063 16.6442C12.3618 16.6114 12.3847 16.5408 12.4401 16.5403L12.8672 16.537L13.0023 16.1318C13.0201 16.0793 13.0943 16.0793 13.1118 16.1318Z" fill="#F5F5F5"/>
<path d="M14.757 4.02398L14.8921 4.42922L15.3193 4.43252C15.3746 4.43297 15.3975 4.50352 15.353 4.53635L15.0093 4.79011L15.1382 5.19738C15.1548 5.25012 15.0948 5.29376 15.0498 5.26157L14.7023 5.01315L14.3547 5.26157C14.3098 5.29376 14.2497 5.25012 14.2664 5.19738L14.3952 4.79011L14.0515 4.53635C14.0071 4.50352 14.03 4.43291 14.0853 4.43252L14.5124 4.42922L14.6476 4.02398C14.6653 3.9715 14.7395 3.9715 14.757 4.02398Z" fill="#F5F5F5"/>
<path d="M14.757 7.77313L14.8921 8.17836L15.3193 8.18167C15.3746 8.18212 15.3975 8.25267 15.353 8.28555L15.0093 8.53932L15.1382 8.94659C15.1548 8.99933 15.0948 9.04297 15.0498 9.01078L14.7023 8.76236L14.3547 9.01078C14.3098 9.04297 14.2497 8.99933 14.2664 8.94659L14.3952 8.53932L14.0515 8.28555C14.0071 8.25273 14.03 8.18212 14.0853 8.18167L14.5124 8.17836L14.6476 7.77313C14.6653 7.72064 14.7395 7.72064 14.757 7.77313Z" fill="#F5F5F5"/>
<path d="M14.757 11.335L14.8921 11.7402L15.3193 11.7435C15.3746 11.744 15.3975 11.8145 15.353 11.8474L15.0093 12.1012L15.1382 12.5084C15.1548 12.5612 15.0948 12.6047 15.0498 12.5726L14.7023 12.3242L14.3547 12.5726C14.3098 12.6048 14.2497 12.5612 14.2664 12.5084L14.3952 12.1012L14.0515 11.8474C14.0071 11.8146 14.03 11.744 14.0853 11.7435L14.5124 11.7402L14.6476 11.335C14.6653 11.2825 14.7395 11.2825 14.757 11.335Z" fill="#F5F5F5"/>
<path d="M14.757 14.5337L14.8921 14.939L15.3193 14.9423C15.3746 14.9427 15.3975 15.0133 15.353 15.0462L15.0093 15.2999L15.1382 15.7072C15.1548 15.7599 15.0948 15.8036 15.0498 15.7714L14.7023 15.523L14.3547 15.7714C14.3098 15.8036 14.2497 15.7599 14.2664 15.7072L14.3952 15.2999L14.0515 15.0462C14.0071 15.0133 14.03 14.9427 14.0853 14.9423L14.5124 14.939L14.6476 14.5337C14.6653 14.4813 14.7395 14.4813 14.757 14.5337Z" fill="#F5F5F5"/>
<path d="M16.4022 2.42323L16.5374 2.82846L16.9645 2.83177C17.0198 2.83221 17.0427 2.90276 16.9983 2.93559L16.6546 3.18935L16.7834 3.59662C16.8001 3.64936 16.74 3.69294 16.6951 3.66081L16.3475 3.41239L16 3.66081C15.955 3.693 15.895 3.64936 15.9116 3.59662L16.0405 3.18935L15.6968 2.93559C15.6523 2.90276 15.6752 2.83215 15.7305 2.83177L16.1576 2.82846L16.2928 2.42323C16.3106 2.37081 16.3848 2.37081 16.4022 2.42323Z" fill="#F5F5F5"/>
<path d="M16.4022 5.80364L16.5374 6.20888L16.9645 6.21219C17.0198 6.21263 17.0427 6.28318 16.9983 6.31607L16.6546 6.56984L16.7834 6.97711C16.8001 7.02984 16.74 7.07342 16.6951 7.0413L16.3475 6.79287L16 7.0413C15.955 7.07349 15.895 7.02984 15.9116 6.97711L16.0405 6.56984L15.6968 6.31607C15.6523 6.28325 15.6752 6.21263 15.7305 6.21219L16.1576 6.20888L16.2928 5.80364C16.3106 5.75116 16.3848 5.75116 16.4022 5.80364Z" fill="#F5F5F5"/>
<path d="M16.4022 9.55267L16.5374 9.9579L16.9645 9.96121C17.0198 9.96166 17.0427 10.0322 16.9983 10.0651L16.6546 10.3189L16.7834 10.7261C16.8001 10.7789 16.74 10.8224 16.6951 10.7903L16.3475 10.542L16 10.7903C15.955 10.8224 15.895 10.7789 15.9116 10.7261L16.0405 10.3189L15.6968 10.0651C15.6523 10.0323 15.6752 9.96166 15.7305 9.96121L16.1576 9.9579L16.2928 9.55267C16.3106 9.50018 16.3848 9.50018 16.4022 9.55267Z" fill="#F5F5F5"/>
<path d="M16.4022 12.9972L16.5374 13.4025L16.9645 13.4058C17.0198 13.4062 17.0427 13.4768 16.9983 13.5097L16.6546 13.7634L16.7834 14.1707C16.8001 14.2234 16.74 14.267 16.6951 14.2349L16.3475 13.9865L16 14.2349C15.955 14.267 15.895 14.2234 15.9116 14.1707L16.0405 13.7634L15.6968 13.5097C15.6523 13.4769 15.6752 13.4062 15.7305 13.4058L16.1576 13.4025L16.2928 12.9972C16.3106 12.9448 16.3848 12.9448 16.4022 12.9972Z" fill="#F5F5F5"/>
<path d="M16.4022 16.1318L16.5374 16.537L16.9645 16.5403C17.0198 16.5408 17.0427 16.6113 16.9983 16.6442L16.6546 16.898L16.7834 17.3052C16.8001 17.358 16.74 17.4015 16.6951 17.3694L16.3475 17.1211L16 17.3694C15.955 17.4015 15.895 17.358 15.9116 17.3052L16.0405 16.898L15.6968 16.6442C15.6523 16.6114 15.6752 16.5408 15.7305 16.5403L16.1576 16.537L16.2928 16.1318C16.3106 16.0793 16.3848 16.0793 16.4022 16.1318Z" fill="#F5F5F5"/>
</g>
<defs>
<clipPath id="clip0_1689_2930">
<rect x="0.857178" y="0.857178" width="32.5714" height="32.5714" rx="16.2857" fill="white"/>
</clipPath>
</defs>
</svg>
